<?xml version="1.0" encoding="UTF-8"?>
<svg xmlns="http://www.w3.org/2000/svg" viewBox="0 0 500 500">
  <path d="M73.36,249.75c0-9.82,.05-19.64-.04-29.46-.02-1.89,.35-2.65,2.45-2.62,9.9,.12,19.8,.08,29.7,.05,3.48,0,6.86,.62,10.06,1.84,7.24,2.75,9.47,8.23,8.94,16.13-.32,4.73-3.11,7.9-6.76,10.43-1.28,.88-1.26,1.05,.15,1.72,7.03,3.33,10.67,9.84,9.87,17.42-.82,7.83-5.89,13.54-13.77,15.51-3.73,.93-7.5,1.43-11.36,1.41-8.86-.06-17.73-.09-26.59,.02-2.15,.03-2.7-.68-2.68-2.74,.09-9.9,.04-19.8,.04-29.7h-.01Zm24.16,3.97c0-.07,0-.13,0-.2-2.55,0-5.11,.07-7.65-.03-1.45-.05-1.98,.43-1.96,1.9,.06,4.62,.05,9.25-.02,13.87-.02,1.33,.39,1.82,1.77,1.8,4.86-.08,9.73-.07,14.59-.05,1.48,0,2.83-.42,4.16-.95,3.61-1.44,5.13-4.8,4.48-9.77-.48-3.66-3.07-6.3-6.76-6.54-2.86-.19-5.73-.04-8.6-.04Zm-.37-24.64c-2.83,0-5.06,.07-7.29-.03-1.37-.06-2.01,.21-1.96,1.8,.11,3.74,.07,7.49-.01,11.23-.03,1.35,.42,1.83,1.78,1.79,2.55-.08,5.1-.01,7.65-.02,2.86-.02,5.73,.16,8.54-.68,3.09-.93,4.69-3.1,4.73-6.6,.05-3.76-1.41-5.92-4.54-6.95-3.13-1.03-6.33-.29-8.9-.55Z"/>
  <path d="M196.47,240.46c4.56-4.62,9.78-6.69,15.94-6.23,7.94,.59,13.66,4.55,14.42,13.91,.88,10.85,.24,21.72,.44,32.58,.02,1.13-.42,1.57-1.55,1.56-3.43-.04-6.87-.07-10.31,0-1.69,.03-1.44-1.05-1.44-2.08,0-8.31,0-16.62-.02-24.93,0-1.36-.13-2.69-.38-4.04-1.18-6.41-5.45-7.11-10.56-6.12-3.66,.71-5.64,3.38-6.13,7.57-1.03,8.84-.33,17.72-.49,26.58-.06,3.09,0,3.09-3.1,3.09-2.56,0-5.12-.13-7.67,.02-1.96,.12-2.36-.63-2.36-2.47,.07-18.46,.02-36.91,.07-55.37,0-2.2-1.01-5.03,.46-6.44,1.34-1.28,4.12-.3,6.26-.36,1.44-.04,2.89,.1,4.31-.03,1.76-.16,2.14,.62,2.13,2.22-.07,5.99-.02,11.98,0,17.98,0,.85,0,1.71,0,2.56Z"/>
  <path d="M264,278.7c-7.65,5.34-15.61,6.59-24.07,2.78-5.64-2.54-8.16-7.95-7.21-14.98,.69-5.09,5.07-9.48,10.37-10.59,4.93-1.02,9.91-1.65,14.89-2.25,3.4-.41,5.37-2.03,5.41-4.55,.06-3.56-1.69-5.55-5.41-5.96-1.42-.16-2.87-.13-4.3-.05-3.21,.17-5.45,1.74-6.25,4.92-.38,1.53-1.14,2-2.67,1.92-2.63-.13-5.27-.05-7.91-.05-2.88,0-3.33-.56-2.53-3.38,1.37-4.86,4.64-8.11,9.13-10.1,5.87-2.61,12.09-2.62,18.33-1.86,2.36,.29,4.71,.57,6.97,1.53,5.06,2.16,7.86,5.74,7.84,11.37-.02,5.99-.02,11.98,.03,17.97,.03,3.35,.19,6.7,.25,10.06,.03,1.86,.35,3.68,1.15,5.33,.64,1.32,.1,1.52-1.02,1.52-3.43-.01-6.87,.02-10.3-.03-1.59-.03-1.58-.1-2.71-3.61Zm-.43-14.34c-.19-1.24,.56-2.93-.37-3.83-.77-.73-2.09,.66-3.26,.69-.16,0-.32,.02-.47,.06-3.31,.88-6.81,.93-10.02,2.24-2.08,.85-3.3,2.43-3.56,4.7-.25,2.14,.32,4.01,2.11,5.28,4.64,3.3,12.99,.72,15.03-4.55,.57-1.47,.24-3.01,.54-4.59Z"/>
  <path d="M411.19,262.35c-4.63,0-9.26,0-13.9,0-3,0-3.38,.57-2.49,3.55,1.89,6.29,6.12,8.34,13,7.58,3.25-.36,6.13-1.74,7.78-4.87,.5-.96,1.39-.93,2.28-.93,2.4,.01,4.8,.13,7.19,0,2.4-.14,2.21,.87,1.49,2.53-3.21,7.45-8.63,12.08-16.79,13.18-9.81,1.32-20.2-1.92-25.23-11.56-5.49-10.51-3.75-26.85,7.28-33.87,11-7,29.12-5.88,34.93,12.67,.96,3.06,1.34,6.21,1.45,9.42,.06,1.81-.64,2.35-2.38,2.32-4.87-.08-9.74-.03-14.61-.03h0Zm-6.18-8.47s0-.03,0-.04c2.94,0,5.89,.01,8.83-.01,.65,0,1.56,.21,1.24-1.06-1.34-5.31-3.66-8.33-9.78-8.61-5.38-.25-9.35,3.03-10.24,8-.24,1.32,.08,1.75,1.36,1.73,2.86-.03,5.73-.01,8.59-.01Z"/>
  <path d="M161.43,262.11c-4.95,0-9.9,.08-14.85-.04-1.87-.04-2.12,.64-1.8,2.26,.87,4.32,2.57,7.87,7.39,8.89,5.38,1.15,10.19,.5,13.56-4.38,.62-.9,1.21-1.09,2.12-1.08,2.47,.02,4.95,0,7.42,.02,2.59,.01,2.69,.15,1.7,2.49-3.09,7.28-8.35,11.92-16.3,13.09-9.97,1.46-20.46-1.45-25.79-11.66-5.35-10.26-3.95-27.85,8.99-34.63,14.53-7.6,32.95-.65,34.3,18.95,.42,6.09,.3,6.1-5.73,6.09-3.67,0-7.34,0-11.02,0Zm-6.34-8.18s0-.02,0-.02c2.86,0,5.73-.04,8.59,.02,1.25,.02,1.74-.35,1.46-1.68-1.1-5.25-5.6-8.58-11.01-8.07-4.82,.45-8.66,3.94-9.05,8.01-.14,1.46,.33,1.79,1.66,1.76,2.78-.07,5.57-.02,8.36-.02Z"/>
  <path d="M295.85,241.46c5.91-7.22,13.12-8.48,21.23-6.37,5.65,1.47,9.9,7.16,10.03,13.97,.21,10.54,.09,21.08,.16,31.62,0,1.27-.43,1.65-1.67,1.62-3.11-.07-6.23-.11-9.34,0-1.57,.06-2.05-.4-2.03-2.01,.08-7.66,.02-15.33,.05-22.99,.01-2.57-.17-5.13-.87-7.59-1-3.49-3.56-5.16-7.42-5.15-4.23,.01-7.61,2.2-8.81,5.67-.69,1.99-.9,4.05-.91,6.13-.05,7.9-.11,15.81-.04,23.71,.02,1.97-.55,2.72-2.57,2.62-2.87-.15-5.75-.09-8.62-.04-1.42,.02-1.99-.51-1.99-1.96,.03-14.45,.03-28.9-.02-43.36,0-1.49,.57-1.97,1.97-1.95,2.87,.04,5.75,.09,8.62-.06,1.87-.1,2.41,.65,2.24,2.37-.11,1.1-.02,2.21-.02,3.78Z"/>
  <path d="M370.92,252.3c-.72,0-1.45-.09-2.15,.01-2.75,.4-4.17-.35-5.07-3.4-1.69-5.75-10.38-6.69-14.93-1.94-1.71,1.79-2.75,3.98-3.21,6.31-1.13,5.81-1.34,11.56,2.38,16.72,2.37,3.29,5.68,4.3,9.48,3.65,4.16-.71,6.95-3.23,7.78-7.4,.33-1.66,.93-2.1,2.47-2.06,2.79,.09,5.59,.11,8.39,0,1.78-.07,2.19,.47,1.81,2.22-2.94,13.67-14,17.96-24.52,17.01-10.3-.93-17.71-6.27-20.58-16.47-3.01-10.66,.45-24.38,11.63-30.17,9.36-4.85,24.89-2.51,30.38,6.59,1.38,2.29,2.17,4.76,2.57,7.39,.17,1.11-.17,1.62-1.38,1.56-1.67-.08-3.35-.02-5.03-.02Z"/>
  <path d="M154.94,222.1c3.66,0,7.33,.08,10.99-.03,1.73-.05,2.39,.41,2.33,2.27-.17,4.91,.59,4.31-4.35,4.33-6.53,.03-13.07-.06-19.6,.02-1.9,.02-2.74-.41-2.58-2.53,.36-4.71-.59-4,4.13-4.07,1.51-.02,3.03,0,4.54,0,1.51,0,3.03,0,4.54,0Z"/>
</svg>