<?xml version="1.0" encoding="UTF-8"?>
<svg xmlns="http://www.w3.org/2000/svg" viewBox="0 0 500 500">
  <path d="M112.08,258.19c0,3.83,.03,7.67,0,11.5-.06,5.64-3.68,9.25-9.31,9.29-6.15,.04-12.3,0-18.45,0-3.65,0-6.35-1.75-7.85-4.91-1.52-3.21-1.32-6.52,1.05-9.42,1.15-1.42,3.12-2.7,3.3-4.22,.15-1.29-1.79-2.78-2.7-4.25-3.93-6.37-3.27-15.09,1.57-21.28,4.56-5.84,12.81-8.3,19.8-5.91,7.43,2.55,12.39,9.27,12.56,17.21,.09,3.99,.02,7.99,.02,11.98h.02Zm-25.5-3.78c1.34-1.48,2.6-3.03,4.03-4.41,3.64-3.5,6-8.41,11.34-10.04-4.53-4.86-10.76-5.28-15.19-1.15-4.47,4.16-4.58,11.04-.18,15.61Zm17.83,7.69c-3.91,2.36-7.85,4.15-11.86,3.16-4-.99-6.2,.5-8.2,3.39-.04,.06-.1,.12-.16,.18-.45,.45-1.02,.91-.75,1.62,.31,.83,1.13,.73,1.83,.73,5.73,0,11.47-.01,17.2,.02,1.46,0,1.97-.68,1.94-2.05-.04-2.21-.01-4.43-.01-7.05Zm-9.85-4.79c4.63-.33,8.72-3.79,9.38-7.67,.09-.51,.38-1.14-.31-1.48-.4-.2-.8,.03-1.07,.33-2.61,2.86-5.21,5.73-8,8.82Z"/>
  <path d="M152.81,241.33c-1.29-3.91,.86-3.61,2.98-3.58,4.58,.07,4.6,.02,4.58,4.6-.03,7.66,.18,15.34-.22,22.98-.44,8.36-4.52,12.5-12.94,13.5-4.96,.59-9.85-.05-14.36-2.54-1.51-.83-2.29-1.64-.84-3.17,.16-.17,.27-.39,.41-.59,.99-1.44,1.68-3.51,3.04-4.14,1.33-.62,2.73,1.43,4.23,2.06,2.37,1,4.83,1.2,7.27,.7,3.58-.73,5.24-3.83,4.84-8.87-2.2,2.36-4.83,3.51-7.88,3.48-3.03-.02-5.74-1-8.19-2.84-4.39-3.3-6.27-10.66-4.18-16.81,3.2-9.43,13.01-11.98,21.26-4.77Zm-.34,10.08c-.01-3.7-2.97-6.72-6.62-6.75-3.58-.03-6.6,3.1-6.56,6.81,.03,3.65,2.91,6.57,6.5,6.6,3.71,.04,6.7-2.94,6.69-6.66Z"/>
  <path d="M290.9,261.89c.8,3.34-.75,3.58-2.96,3.51-4.61-.13-4.62-.04-4.62-4.59,0-12.06,.04-24.12-.04-36.18-.01-1.73,.31-2.47,2.18-2.22,2.02,.28,4.75-.87,5.92,.49,1,1.16,.34,3.8,.35,5.79,.02,3.75,0,7.5,0,11.64,2.18-1.93,4.43-2.93,7-3.19,5.2-.53,9.65,1.75,12.06,6.41,2.7,5.21,2.97,10.53,.27,15.84-3.02,5.95-12.63,10.08-20.17,2.51Zm6.7-3.48c4.11,.02,6.65-2.54,6.68-6.73,.04-4.32-2.56-7.07-6.65-7.04-3.99,.03-6.54,2.71-6.56,6.89-.02,4.21,2.49,6.87,6.53,6.89Z"/>
  <path d="M419.08,240.13c0-5.32,.07-10.48-.04-15.63-.04-1.69,.43-2.27,2.11-2.08,2.12,.23,4.95-.89,6.18,.46,1.05,1.15,.33,3.94,.34,6,.01,11.42-.03,22.84,.05,34.27,.01,1.76-.38,2.51-2.22,2.25-.94-.14-1.93-.12-2.87,0-2.16,.27-3.42-.29-2.68-3.22-2.51,2-4.71,3.71-7.61,3.87-7.5,.42-12.99-4.19-14.05-11.69-.36-2.58-.19-5.09,.5-7.58,2.63-9.42,12.36-12.72,20.3-6.64Zm-5.96,18.28c4.11,0,6.64-2.54,6.68-6.72,.04-4.34-2.52-7.06-6.63-7.05-3.92,0-6.62,2.81-6.64,6.89-.03,4.09,2.64,6.88,6.6,6.89Z"/>
  <path d="M330.5,266.05c-8.72-.02-15-6.1-14.99-14.52,0-8.48,6.37-14.53,15.26-14.5,8.74,.03,14.95,6.08,14.95,14.55,0,8.51-6.29,14.49-15.22,14.47Zm.03-7.64c4.14,.03,6.63-2.43,6.71-6.62,.08-4.37-2.38-7.09-6.48-7.15-4.16-.06-6.7,2.55-6.71,6.91-.02,4.26,2.41,6.83,6.48,6.86Z"/>
  <path d="M232.43,266.05c-8.76-.02-14.9-6.01-14.89-14.52,0-8.5,6.17-14.47,14.97-14.49,8.83-.02,15.25,6.1,15.26,14.55,0,8.4-6.44,14.48-15.33,14.46Zm.17-7.64c4.07,0,6.57-2.58,6.58-6.78,.02-4.34-2.52-7.02-6.63-6.99-4.1,.03-6.65,2.75-6.6,7.06,.05,4.19,2.55,6.71,6.65,6.71Z"/>
  <path d="M183.32,254.21c-2.71,0-5.43,.06-8.14-.02-1.42-.04-1.64,.4-1.12,1.65,1.57,3.79,6.97,5,10.02,1.95,1.55-1.55,2.51-1.41,3.81-.02,.32,.34,.77,.56,1.16,.84,2.93,2.13,2.93,2.22,.12,4.41-6.39,4.99-16.66,3.69-21.42-2.71-4.87-6.56-3.36-16.21,3.46-20.68,4.61-3.02,9.75-3.69,14.79-1.25,4.68,2.26,6.46,6.57,6.83,11.55q.32,4.28-4,4.28c-1.84,0-3.67,0-5.51,0Zm-4.35-5.82c1.43,0,2.86-.03,4.29,.01,1.17,.04,1.3-.43,.98-1.45-.69-2.24-2.2-3.4-4.46-3.66-2.23-.26-4.77,1.13-5.71,3.09-.69,1.44-.53,2.22,1.33,2.04,1.18-.11,2.38-.02,3.57-.02Z"/>
  <path d="M259.85,240.59c2.3-2.44,4.94-3.61,8.15-3.55,5.59,.09,9.24,3.33,9.48,8.94,.25,5.97,.11,11.96,.2,17.94,.02,1.2-.47,1.42-1.55,1.47-6.85,.34-6.83,.37-6.86-6.47-.01-3.11-.04-6.22-.22-9.32-.2-3.42-1.46-4.86-4.01-4.93-2.86-.07-4.31,1.18-4.82,4.45-.7,4.51-.25,9.07-.25,13.61,0,1.98-.29,2.76-2.55,2.7-6-.18-6-.05-6-6.16,0-6.54,.04-13.08-.03-19.62-.02-1.42,.28-2.06,1.82-1.89,1.26,.13,2.57,.16,3.82,0,2.12-.27,3.16,.41,2.82,2.85Z"/>
  <path d="M367.04,261.89c-4.28,4.09-8.51,5.23-13.3,3.39-3.75-1.44-5.66-4.28-5.56-8.03,.1-3.77,2.17-6.61,5.82-7.9,3.42-1.21,6.98-1.5,10.57-1.6,.65-.02,1.66,.41,1.89-.47,.19-.7-.2-1.53-.71-2.19-1.99-2.57-6.27-3.04-9.26-.56-1.8,1.49-2.65,1.31-4.1-.34-2.76-3.13-2.87-3.17,.96-5.1,3.97-2.01,8.2-2.57,12.55-1.68,5.37,1.09,7.9,4.18,8.36,10.91,.36,5.24,.09,10.53,.17,15.79,.02,1.16-.53,1.31-1.46,1.27-1.11-.05-2.23-.05-3.35,0-1.94,.08-4.01,.35-2.58-3.48Zm-3.68-8.5c-1.69,.2-3.24,.09-4.64,.75-1.43,.68-2.64,1.64-2.36,3.43,.26,1.69,1.66,2.24,3.1,2.51,1.98,.36,3.8-.29,5.38-1.4,1.57-1.11,2.25-2.92,1.68-4.62-.5-1.49-2.24-.31-3.17-.67Z"/>
  <path d="M215.38,258.28c0,2.03-.03,3.93,.01,5.83,.03,1.05-.61,1.41-1.45,1.56-3.66,.64-7.3,.86-10.71-1-2.86-1.56-3.67-4.25-3.72-7.26-.06-3.59-.08-7.19,.01-10.77,.04-1.49-.27-2.1-1.94-2.06-3.38,.09-3.38-.02-3.38-3.39,0-.48,.06-.97-.01-1.44-.22-1.52,.31-2.06,1.93-2.01,3.37,.09,3.37-.01,3.37-3.31q0-4.84,4.84-4.84,3.74,0,3.74,3.78c0,4.41,0,4.56,4.27,4.35,2.43-.12,3.26,.49,3.1,3.04-.24,3.85-.06,3.87-3.92,3.87q-3.45,0-3.45,3.37c0,2.08-.02,4.15,.01,6.23,.07,3.95,1.82,5.32,5.67,4.47,.46-.1,.91-.23,1.63-.41Z"/>
  <path d="M386.92,241.23c2.4-3.1,5.33-4.47,9.1-4.18,1.13,.08,1.85,.41,1.65,1.71-.01,.08,0,.16,0,.24,0,1.76,.53,3.77-.15,5.2-.89,1.88-3.04,.23-4.65,.49-3.52,.57-5.08,1.78-5.63,5.36-.68,4.44-.27,8.92-.27,13.37,0,1.63-.52,1.97-2.03,1.98-6.54,.05-6.53,.09-6.53-6.33s.08-12.77-.05-19.15c-.04-1.88,.55-2.37,2.28-2.17,1.18,.14,2.4,.14,3.58,0,2.04-.24,3.17,.29,2.71,2.59-.06,.28,0,.59,0,.89Z"/>
</svg>