<?xml version="1.0" encoding="UTF-8"?>
<svg cxmlns="http://www.w3.org/2000/svg" viewBox="0 0 500 500">
  <path d="M148.31,277.29c6.68-.58,12.38-2.16,17.29-5.93,5.61-4.3,7.59-10.42,8.41-17.07,.88-7.12,.01-13.86-4.86-19.56-.56-.65-.53-1.32-.3-2,1.3-3.85,.95-7.68-.11-11.51-.75-2.72-1.21-3.02-4.09-2.38-3.69,.82-7.04,2.49-10.16,4.55-1.46,.97-2.8,1.18-4.46,.78-7.89-1.91-15.81-1.9-23.7,0-1.56,.38-2.83,.26-4.25-.68-3.18-2.11-6.65-3.73-10.4-4.59-2.97-.68-3.21-.52-4.05,2.31-1.13,3.84-1.31,7.7-.1,11.54,.24,.76,.36,1.27-.21,1.93-5.61,6.53-6.09,14.19-4.54,22.14,2.42,12.43,9.48,18.5,23.16,20.29,.47,.06,.94,.12,1.72,.21-1.5,2.37-2.99,4.58-3.28,7.31-.08,.73-.87,.88-1.46,1.07-6.33,2.01-11.01,1.33-14.88-4.82-1.45-2.31-3.23-4.09-5.62-5.35-1.39-.73-2.83-.99-4.37-.88-1.37,.1-1.75,.71-.85,1.83,.4,.49,.86,.98,1.39,1.3,2.96,1.76,4.84,4.45,5.95,7.55,2,5.6,6.18,7.79,11.72,8.11,2.55,.15,5.1,.16,7.92-.45,0,3.79,.13,7.46-.05,11.11-.11,2.21-2.03,3.09-4.54,2.22-5.3-1.83-10.28-4.33-14.75-7.72-10.63-8.06-18.01-18.41-21.44-31.37-5.86-22.16,1.38-45.94,20.5-60.61,11.42-8.76,24.46-12.45,38.77-11.44,22.96,1.63,43.06,17.9,49.72,40.07,7.84,26.11-2.9,53.38-26.35,66.88-2.91,1.67-5.97,3-9.11,4.14-2.99,1.09-4.64-.08-4.68-3.27-.05-4.31-.02-8.63-.02-12.94,0-4.49-.12-8.95-3.92-12.76Z"/>
  <path d="M300.1,251.01c0-7.27,.06-14.54-.04-21.81-.03-1.85,.62-2.38,2.34-2.29,2.07,.1,4.16,.11,6.23,0,1.82-.1,2.55,.45,2.49,2.43-.14,4.63,0,9.27-.07,13.9-.02,1.3,.25,1.8,1.67,1.77,4.07-.1,8.15-.09,12.22,0,1.3,.03,1.59-.4,1.58-1.62-.06-4.79,.03-9.59-.06-14.38-.03-1.56,.47-2.15,2.05-2.09,2.31,.09,4.63,.07,6.95,0,1.41-.04,1.99,.45,1.98,1.94-.04,14.86-.04,29.72,0,44.58,0,1.38-.49,1.8-1.83,1.76-2.47-.09-4.96-.09-7.43,0-1.43,.06-1.73-.55-1.72-1.84,.06-5.67-.02-11.35,.07-17.02,.02-1.46-.32-1.91-1.83-1.86-3.91,.12-7.83,.13-11.74,0-1.67-.06-1.93,.55-1.91,2.03,.08,5.51-.03,11.03,.07,16.54,.03,1.68-.47,2.27-2.16,2.17-2.23-.13-4.48-.13-6.71,0-1.67,.1-2.19-.43-2.17-2.14,.09-7.35,.04-14.7,.04-22.05Z"/>
  <path d="M251.78,259.94c0,3.59,0,7.19,0,10.78,0,.87,.02,1.64-.92,2.26-6.65,4.39-22.01,4.2-28.7-.38-4.56-3.12-6.94-7.56-7.95-12.84-1.44-7.56-1.28-15.03,1.39-22.36,2.58-7.09,7.82-10.93,15.06-11.97,5.31-.76,10.67-.49,15.91,.88,3.1,.81,3.36,1.22,2.67,4.21-.43,1.86-.44,4.19-1.59,5.4-1.28,1.36-3.35-.52-5.15-.57-2.55-.07-5.07-.39-7.64-.13-4.41,.45-7.57,2.53-9.04,6.7-2.08,5.91-2.03,11.94,0,17.84,1.56,4.53,5.03,6.52,9.8,6.5,5.37-.02,5.37,.03,5.37-5.28,0-4.61,0-4.7-4.57-4.6-1.93,.04-2.81-.42-2.58-2.5,.24-2.21-.89-5.05,.43-6.49,1.35-1.48,4.22-.4,6.43-.47,3.03-.1,6.07,.06,9.1-.06,1.61-.06,2.06,.51,2.02,2.06-.09,3.67-.03,7.35-.03,11.02Z"/>
  <path d="M379.09,251.06c0-7.35,.04-14.7-.03-22.04-.01-1.52,.39-2.18,2-2.11,2.31,.1,4.63,.08,6.95,0,1.47-.05,1.95,.52,1.93,1.97-.07,4.23,0,8.47-.04,12.7-.01,1.24,.09,1.78,1.56,1.11,2.27-1.03,4.73-1.43,7.22-1.43,6.61,0,10.77,3.36,12.18,9.85,1.14,5.23,.94,10.5-.23,15.67-1.65,7.25-7.46,10.58-15.39,9.16-2.37-.42-4.62-1.14-6.74-2.29-.35-.19-.99-.82-1.1-.15-.39,2.41-2.18,1.63-3.52,1.65-4.8,.06-4.8,.02-4.8-4.67,0-6.47,0-12.94,0-19.41Zm21.61,7.85s0,0-.01,0c0-1.11,.11-2.24-.02-3.34-.63-5.38-5.68-7.61-10.26-4.6-.45,.29-.68,.57-.68,1.11,.01,4.45,0,8.91,0,13.36,0,.54,.31,.82,.75,1.09,4.96,3.1,9.8,.74,10.2-5.01,.06-.87,0-1.75,0-2.62Z"/>
  <path d="M373.9,258.75c0,4.87-.03,9.74,.02,14.61,.01,1.28-.27,1.94-1.72,1.84-1.43-.1-2.87,.01-4.31-.02-.46-.01-1.27-.11-1.31-.3-.57-2.8-2.14-.88-3.02-.51-3.54,1.51-7.19,2.01-10.98,1.7-6.42-.51-9.9-3.91-10.11-10.45-.24-7.18-.05-14.37-.1-21.55,0-1.37,.59-1.85,1.87-1.83,2.39,.03,4.79,.07,7.18-.01,1.58-.06,2.07,.57,2.06,2.11-.06,5.99-.06,11.97,0,17.96,.02,1.78-.35,3.93,1.76,4.82,2.41,1.01,4.84,.41,7.13-.71,.94-.46,.65-1.37,.65-2.13,.01-6.55,.07-13.09-.03-19.64-.03-1.93,.62-2.56,2.49-2.43,1.99,.13,4,.13,5.98,0,1.84-.12,2.54,.42,2.48,2.4-.14,4.71-.05,9.42-.05,14.13Z"/>
  <path d="M276.79,259.27c0-2.42-.09-4.5,.03-6.57,.08-1.42-.46-1.74-1.78-1.73-1.21,.01-3.09,.68-3.53-.51-.71-1.98-.56-4.29-.05-6.36,.24-.95,1.82-.89,2.77-.96,2.17-.17,2.77-1.22,2.58-3.25-.17-1.82,.01-3.67-.05-5.5-.04-1.16,.42-1.53,1.55-1.5,2.55,.06,5.11,.08,7.66,0,1.29-.04,1.65,.45,1.6,1.67-.08,1.83,.09,3.68-.05,5.5-.11,1.59,.24,2.24,2.02,2.18,1.78-.06,4.33-.97,5.22,.46,1.26,2.03,.34,4.8,.42,7.25,.02,.67-.46,.99-1.08,1.03-.56,.04-1.12,.03-1.67,.03q-4.86,.02-4.86,5c0,2.47-.01,4.95,0,7.42,.03,2.98,1.03,3.98,4.02,4.07,3.73,.12,3.76,.12,3.7,3.82-.08,4.52,.83,3.71-4.02,4.61-2.68,.5-5.39,.14-8.02-.71-3.66-1.18-5.56-3.77-6.17-7.46-.49-2.93-.23-5.89-.3-8.49Z"/>
  <path d="M257.43,258.62c0-4.79,.05-9.58-.03-14.36-.03-1.56,.49-2.16,2.05-2.11,2.31,.08,4.63,.07,6.94,0,1.44-.04,1.99,.52,1.98,1.97-.04,9.65-.04,19.31,0,28.96,0,1.49-.45,2.18-2.07,2.1-2.23-.11-4.47-.11-6.7,0-1.69,.08-2.23-.54-2.2-2.21,.09-4.79,.03-9.57,.03-14.36Z"/>
  <path d="M262.72,239.69c-3.33-.01-5.97-2.6-5.97-5.86,0-3.27,2.64-5.78,6.05-5.76,3.37,.02,6.07,2.63,6.04,5.83-.04,3.16-2.82,5.8-6.12,5.79Z"/>
</svg>