<?xml version="1.0" encoding="UTF-8"?>
<svg xmlns="http://www.w3.org/2000/svg" viewBox="0 0 500 500">
  <defs>
    <style>
      .cls-1 {
        fill: #1F32E5;
      }
      .cla-1:hover {
        fill: #D9D9D9;
      }
    </style>
  </defs>
  <path class="cls-1" d="M442.75,139.59c-1.68,6.95-2.97,13.96-5.92,20.59-12.74,28.64-41.52,45.78-72.64,43.1-1.98-.17-3.95-.35-5.92-.69-5.48-.92-10.21,.48-14.25,4.58-12.62,12.79-25.31,25.5-38.14,38.07-2.13,2.09-1.7,2.97,.14,4.8,33.5,33.36,66.92,66.81,100.4,100.19,2.18,2.17,3.71,4.57,4.75,7.43,7.61,20.94,15.26,41.87,22.98,62.77,1.52,4.12,2.05,8.02-1.29,11.43-3.45,3.52-7.44,3.08-11.72,1.5-21.12-7.82-42.28-15.56-63.45-23.25-2.42-.88-4.38-2.16-6.18-3.96-33.5-33.54-67.05-67.03-100.49-100.63-2.13-2.13-3.14-2.38-5.39-.09-12.31,12.57-24.72,25.03-37.3,37.33-4.44,4.34-5.94,9.3-5.03,15.23,5.18,33.53-12.08,65.02-43.19,78.4-12.01,5.17-24.59,6.85-37.59,4.96-4.37-.63-7.38-3.12-8.75-7.15-1.41-4.13-.75-8.14,2.48-11.4,3.77-3.81,7.53-7.65,11.38-11.38,2.83-2.74,6.21-2.75,8.57-.21,2.17,2.34,1.98,5.63-.64,8.33-3.28,3.4-6.65,6.7-10.37,10.44,7.27,1.55,14.01,.56,20.57-.95,30.26-6.99,50.41-35.68,46.9-66.59-.34-2.96-.97-5.9-.95-8.89,.05-7.37,3.15-13.38,8.32-18.52,12.66-12.57,25.18-25.28,37.91-37.78,2.18-2.14,1.88-3.2-.11-5.15-9.45-9.25-18.82-18.59-28.04-28.06-2.24-2.3-3.47-2.68-5.95-.14-11.31,11.62-23.16,22.73-34.24,34.55-8.49,9.06-17.86,12.41-30.38,10.53-25.55-3.84-51.29,10.79-62.46,34.24-4.02,8.44-5.89,17.37-6.01,26.68-.02,1.98-.09,4,1.14,6.72,3.18-3.42,6.04-6.67,9.08-9.74,8.6-8.69,17.33-17.25,25.89-25.98,2.47-2.52,4.99-3.22,8.37-2.18,10.76,3.32,21.56,6.52,32.37,9.65,2.91,.84,4.64,2.42,5.5,5.38,3.12,10.83,6.4,21.61,9.62,32.41,.14,.47,.21,.97,.34,1.45,1.23,4.89-8.82,15.72-13.8,14.88-4.33-.72-6.67-6.42-3.19-9.08,5.64-4.31,4.55-8.85,2.63-14.25-2.03-5.71-3.65-11.58-5.19-17.44-.55-2.07-1.43-3.08-3.52-3.66-7.76-2.14-15.5-4.37-23.15-6.87-2.4-.79-3.83-.39-5.54,1.34-10.25,10.39-20.69,20.6-30.88,31.05-3.73,3.83-7.87,5.87-13.03,4.15-5.4-1.8-7.45-6.29-7.75-11.64-1.63-29.65,9.76-52.9,35.01-68.65,15.08-9.41,31.78-12.34,49.43-9.3,5.49,.94,10.2-.61,14.24-4.7,12.53-12.7,25.14-25.31,37.86-37.82,2.07-2.04,2.04-3.03-.01-5.07-41.44-41.3-82.76-82.72-124.2-124.03-6.41-6.39-8.84-13.64-6.41-22.36,.91-3.28,2.77-6.08,5.2-8.5,8.57-8.54,17.05-17.18,25.69-25.64,8.57-8.39,20.98-8.52,29.45-.11,25.76,25.57,51.41,51.27,77.08,76.94,3.2,3.2,3.41,6.62,.75,9.11-2.56,2.4-5.66,2.07-8.82-1.08-16.07-16.04-32.11-32.1-48.36-48.35-5.31,5.31-10.56,10.61-15.87,15.84-.96,.95-.9,1.58,.06,2.39,.57,.48,1.07,1.05,1.6,1.58,81.41,81.43,162.83,162.85,244.15,244.36,2.6,2.61,3.88,2.57,6.22-.08,3.55-4.01,7.42-7.76,11.35-11.39,2.05-1.9,2.27-2.99,.1-5.13-21.44-21.25-42.75-42.64-64.09-63.99-37.67-37.67-75.33-75.33-113-113-.79-.79-1.61-1.57-2.38-2.38-3.02-3.14-3.27-6.31-.71-8.83,2.53-2.49,5.71-2.23,8.82,.86,9.73,9.68,19.47,19.35,29.08,29.14,1.61,1.64,2.38,1.63,3.99,0,12.64-12.76,25.32-25.49,38.15-38.06,4.33-4.24,5.72-9.11,4.93-14.91-4.25-31.35,7.08-55.75,33.16-73.32,8.53-5.74,18.12-9.09,28.4-10.27,.48-.05,.92-.43,1.38-.65,5.49,0,10.98,0,16.47,0,13.08,2.8,13.15,15.02,4.93,22.23-10.57,9.26-20.03,19.77-30.05,29.66-1.61,1.59-2.06,2.9-1.32,5.19,2.51,7.76,4.74,15.62,6.95,23.48,.53,1.88,1.37,2.83,3.34,3.37,7.75,2.12,15.49,4.32,23.12,6.83,2.54,.84,4.02,.42,5.84-1.42,10.49-10.65,21.12-21.17,31.67-31.77,2.39-2.4,5.06-3.89,8.56-3.82,6.57,.13,9.49,4.37,11.35,9.87v17.22Zm-11.46-14.48c-.39-.23-.78-.46-1.17-.69-.75,1-1.38,2.1-2.25,2.98-10.73,10.78-21.54,21.49-32.23,32.31-2.43,2.46-4.86,3.4-8.33,2.32-10.75-3.35-21.55-6.55-32.38-9.64-3.25-.93-4.93-2.81-5.83-6-2.88-10.24-5.72-20.51-9.08-30.6-1.53-4.61-.52-7.63,2.83-10.88,10.73-10.43,21.23-21.1,31.78-31.7,.73-.73,1.87-1.23,1.97-2.73-.99-.15-1.95-.4-2.91-.44-3.62-.15-7.2,.1-10.81,.52-33.97,3.99-58.33,36.08-52.76,69.72,1.66,10.06-.83,18.56-8.22,25.8-12.56,12.3-24.86,24.87-37.37,37.23-1.92,1.9-2.42,2.94-.16,5.13,9.76,9.46,19.34,19.1,28.85,28.82,1.89,1.94,2.86,2.14,4.89,.07,12.41-12.63,25.09-24.99,37.46-37.66,7.03-7.2,15.29-9.61,25.07-8.32,26.02,3.44,46.62-5.66,61.3-27.41,7.91-11.71,10.58-24.87,9.36-38.83Zm-324.3,20.88c1.11,.91,2.03,1.54,2.81,2.32,73.03,72.99,146.05,145.99,219.07,218.99,8.82,8.82,17.69,17.58,26.41,26.5,1.77,1.82,2.72,1.67,4.32-.08,2.94-3.22,5.94-6.43,9.25-9.25,2.55-2.17,2.24-3.35-.02-5.61-64.7-64.56-129.32-129.21-193.95-193.85-17.02-17.02-34.02-34.05-51.08-51.03-.94-.93-1.68-3.1-3.74-.97-4.15,4.3-8.48,8.43-13.08,12.97Zm-31.06-34.95c.19,2.45,1.38,4.79,3.42,6.8,6.03,5.96,12.08,11.91,17.96,18.01,1.65,1.71,2.47,1.55,4.06-.05,11.66-11.8,23.39-23.52,35.18-35.19,1.57-1.55,1.85-2.38,.09-4.06-6.12-5.87-12-11.98-18.05-17.93-4.68-4.6-9.8-4.69-14.45-.11-8.36,8.22-16.6,16.56-24.88,24.85-2,2-3.28,4.35-3.33,7.68ZM368.36,401.77c7.79,2.87,15.66,5.75,23.52,8.67,1.3,.48,2.09-.16,2.92-.99,5.18-5.21,10.37-10.41,15.59-15.58,.87-.86,1.35-1.72,.89-2.95-2.92-7.83-5.82-15.67-8.69-23.39-11.45,11.46-22.7,22.71-34.24,34.25Zm37.06,13.7c5.49,1.97,10.82,3.89,16.91,6.08-2.25-6.16-4.19-11.48-6.19-16.95-3.66,3.71-7.03,7.13-10.72,10.88Z"/>
</svg>