<?xml version="1.0" encoding="UTF-8"?>
<svg xmlns="http://www.w3.org/2000/svg" viewBox="0 0 500 500">
  <path d="M335.57,250.36c0-11.42,0-22.85,0-34.27,0-4.89,3.17-8.04,8.09-8.04,22.93,0,45.85,0,68.78,0,4.75,0,7.97,3.19,7.97,7.91,.01,23.01,.01,46.01,0,69.02,0,4.73-3.21,7.91-7.97,7.91-22.93,0-45.85,0-68.78,0-4.92,0-8.09-3.15-8.1-8.03-.01-11.5,0-23.01,0-34.51Zm46.5-5.79c0-.87,0-1.32,0-1.76-.05-3.1-.53-3.59-3.6-3.59-2.55,0-5.11,0-7.66,0-1.76,0-2.64,.85-2.63,2.64,0,13.01,.01,26.02,0,39.04,0,1.82,.85,2.58,2.65,2.53,2.55-.06,5.11,0,7.66-.01,3.35,0,3.58-.23,3.58-3.5,0-6.47,.01-12.93,0-19.4,0-2.46,.65-4.73,1.93-6.79,1.62-2.6,4.07-3.35,7.01-3.08,2.71,.25,4.36,1.79,5.35,4.15,.81,1.94,.96,4.02,.96,6.11,0,6.55,.02,13.09,0,19.64,0,1.61,.24,2.89,2.27,2.88,3.19-.02,6.39-.01,9.58,0,1.47,0,2.27-.68,2.23-2.16-.22-9.64,.69-19.33-.58-28.93-.76-5.73-3.14-10.77-9.13-12.61-7.16-2.19-14-1.74-19.6,4.86Zm-34.12,16.95c0,6.38,.03,12.77-.02,19.15-.01,1.91,.75,2.79,2.69,2.75,2.79-.06,5.59-.08,8.38,.01,1.97,.07,2.77-.89,2.8-2.71,.02-1.91,0-3.83,0-5.74,0-10.69,0-21.38,0-32.08,0-3.07-.62-3.68-3.58-3.69-2.39,0-4.79,.05-7.18-.02-2.24-.06-3.14,.93-3.11,3.17,.07,6.38,.03,12.77,.03,19.15Zm6.75-26.14c4.99,.04,9.02-3.85,9.11-8.79,.09-4.98-3.84-8.99-8.84-9.03-5.13-.04-9,3.7-9.05,8.75-.05,5.04,3.81,9.03,8.78,9.07Z"/>
  <path d="M312.07,276.3c-7.72,6.94-20.62,6.37-27.06,.16-5.99-5.78-7.95-16.41-4.34-25.13,2.99-7.22,10.14-11.75,18.2-11.54,4.73,.12,7.91,1.38,12.37,4.98,0-3.77,0-7.32,0-10.87,0-3.99,.06-7.99-.03-11.98-.04-1.48,.42-1.93,1.89-1.87,2.95,.11,5.91,.09,8.87,0,1.29-.04,1.61,.41,1.6,1.64-.03,19.17-.04,38.35,0,57.52,0,1.43-.48,1.75-1.79,1.7-2.47-.09-4.96-.17-7.43,.02-1.95,.15-2.57-.56-2.31-2.38,.09-.62,.01-1.27,.01-2.25Zm-21.62-15.92c0,4.51,1.37,8.32,5.61,10.55,4.56,2.4,10.68,1.12,13.64-2.75,3.35-4.39,3.11-12.16-.51-15.98-2.9-3.06-8.16-4.08-12.41-2.39-4.03,1.6-6.3,5.39-6.33,10.57Z"/>
  <path d="M206.3,261.49c0,5.81-.05,11.62,.04,17.43,.02,1.55-.38,2.08-1.98,2.01-2.87-.13-5.75-.09-8.63-.01-1.2,.03-1.67-.23-1.66-1.56,.04-19.26,.04-38.51,0-57.77,0-1.36,.53-1.56,1.69-1.53,2.87,.07,5.76,.13,8.63-.02,1.65-.08,1.97,.52,1.96,2.03-.06,10.55-.03,21.09-.03,31.64,0,.68,0,1.37,0,2.69,4.04-4.61,7.8-8.6,11.2-12.88,1.97-2.49,4.07-3.62,7.28-3.31,3.08,.3,6.2,.06,9.31,.06,.29,.88-.43,1.2-.81,1.63-4.42,5.04-8.82,10.09-13.32,15.05-1.14,1.26-1.33,2.06-.17,3.51,5.27,6.6,10.38,13.31,15.89,20.41-4.91,0-9.39,0-13.88,0-1.08,0-1.33-1.04-1.81-1.69-4.42-5.92-8.8-11.88-13.19-17.83-.16,.05-.32,.09-.47,.14Z"/>
  <path d="M157.17,245.89c3.64-4.33,8.08-5.98,13.1-6.08,9.49-.2,15.27,5.01,15.63,14.51,.32,8.37,.09,16.76,.16,25.14,0,1.19-.41,1.47-1.52,1.45-2.95-.07-5.91-.12-8.86,.02-1.6,.08-1.8-.58-1.78-1.93,.06-5.99,.02-11.97,.02-17.96,0-1.76-.16-3.49-.65-5.19-.78-2.72-2.26-4.77-5.26-5.16-3.21-.42-6,.39-8.02,3.12-1.69,2.28-2.16,4.93-2.18,7.67-.04,5.83-.07,11.65,.02,17.48,.02,1.58-.43,2.04-1.99,1.97-2.79-.13-5.59-.09-8.38-.01-1.25,.03-1.82-.19-1.81-1.65,.06-12.45,.06-24.9,0-37.35,0-1.46,.55-1.71,1.82-1.67,2.55,.08,5.11,.14,7.66-.02,1.8-.11,2.21,.63,2.05,2.2-.1,.99-.02,2-.02,3.46Z"/>
  <path d="M273.73,274.34c-5.9,6.3-13.34,7.58-21.19,6.81-13.62-1.34-19.12-12.57-17.89-24.25,1.44-13.66,12.93-18.11,23.86-16.9,13.53,1.49,16.96,13.32,16.46,22.9-.08,1.44-1.02,1.31-2.01,1.31-8.23-.01-16.45,.07-24.68-.06-2.26-.03-2.51,.6-1.81,2.55,2.18,6.07,8.87,8.32,15.27,4.98,.98-.51,2.01-1.11,2.7-1.94,1.24-1.49,2.14-1.53,3.55-.14,1.75,1.72,3.78,3.14,5.75,4.74Zm-27.62-17.87h13.63c3.95,0,4.36-.69,2.44-4.23-.34-.62-.76-1.21-1.23-1.73-2.36-2.6-5.37-3.07-8.5-2.09-3.73,1.17-5.8,3.92-6.33,8.04Z"/>
  <path d="M81.01,250.47c0-9.34,.07-18.69-.06-28.03-.03-2.07,.58-2.57,2.52-2.41,2.22,.18,4.48,.2,6.7,0,2.31-.21,3.07,.37,3.04,2.9-.15,14.37-.01,28.75-.13,43.12-.02,2.2,.63,2.62,2.67,2.58,6.47-.13,12.94,.03,19.4-.1,1.96-.04,2.44,.59,2.34,2.42-.15,2.63-.15,5.27,0,7.9,.1,1.76-.56,2.08-2.17,2.07-10.7-.07-21.4-.08-32.1,0-1.73,.01-2.28-.33-2.26-2.18,.11-9.42,.05-18.85,.05-28.27Z"/>
  <path d="M137.64,260.55c0,6.06-.08,12.13,.05,18.19,.04,1.85-.52,2.28-2.26,2.19-2.78-.15-5.58-.1-8.37-.01-1.23,.04-1.65-.32-1.64-1.6,.04-12.45,.04-24.89,0-37.34,0-1.39,.45-1.78,1.79-1.74,2.87,.09,5.75,.11,8.61,0,1.5-.06,1.88,.42,1.87,1.88-.08,6.14-.03,12.29-.03,18.43Z"/>
  <path d="M131.4,233.46c-4.06-.03-7.27-3.26-7.23-7.29,.04-4.01,3.28-7.18,7.35-7.19,4.04,0,7.33,3.19,7.37,7.19,.05,4.08-3.29,7.32-7.49,7.29Z"/>
</svg>