<?xml version="1.0" encoding="UTF-8"?>
<svg xmlns="http://www.w3.org/2000/svg" viewBox="0 0 500 500">
  <path d="M218.19,58.75h39.67c2.92,1.83,3.84,4.46,3.77,7.87-.18,8.48,.11,16.97-.14,25.44-.09,3.19,.83,3.81,3.89,3.81,45.28-.11,90.56-.08,135.84-.07,11.23,0,22.45-.04,33.68,.03,5.17,.03,7.1,1.99,7.1,6.89,0,74.47,0,148.94,0,223.41,0,4.79-1.9,6.76-6.73,6.82-5.74,.07-11.49,.24-17.21-.06-3.61-.19-4.86,.57-4.77,4.56,.31,13.09,.14,26.19,.1,39.29-.01,4.64-2.07,6.94-5.95,6.87-3.8-.07-5.66-2.34-5.66-7.16-.02-22.33,0-44.66-.02-66.99,0-1.29-.11-2.57-.19-4.4-49.33,42-98.17,83.58-147.65,125.71h73.99c23.33,0,46.65-.09,69.98,.1,3.44,.03,4.1-.98,3.95-4.11-.26-5.35-.11-10.72-.06-16.09,.04-4.75,1.95-6.95,5.87-6.92,3.89,.03,5.72,2.23,5.74,7.05,.03,7.86,.03,15.72,0,23.58-.02,5.77-1.88,7.63-7.55,7.63-55.14,0-110.27-.01-165.41,.04-3.09,0-5.86-.3-7.08-3.51-1.24-3.27,.32-5.57,2.86-7.73,37.06-31.46,74.06-62.98,111.06-94.52,1.04-.89,2.41-1.58,2.9-3.21-.65-.05-1-.09-1.36-.09-51.27,0-102.54,.02-153.81-.07-2.91,0-3.47,.88-3.46,3.59,.12,24.57,.03,49.15,.12,73.72,.04,10.11-3.24,18.56-11.68,24.52-9.08,6.42-19.36,8.32-30.16,6.94-8.67-1.11-16.49-4.5-22.74-10.92-5.01-5.14-7.56-11.3-7.64-18.45-.07-6.62-.02-13.25-.02-20.33-10.71,6.59-21.68,8.54-33.2,6.32-13.86-2.67-23.64-10.3-27.49-24.43V192.74c1.98-2.9,4.68-4.11,8.01-2.86,3.11,1.16,3.25,3.94,3.25,6.84-.04,46.13-.03,92.25-.02,138.38,0,1.28,0,2.55,0,4.46,6.52-5.87,13.53-8.97,21.21-10.28,2.75-.47,2.92-1.54,2.92-3.78-.06-28.92-.04-57.85-.04-86.77,0-40.52-.01-81.03,.04-121.55,0-2.32-.04-3.96-3.05-2.92-10.79,3.72-18.03,10.81-20.31,22.18-1.78,8.86-.49,17.9-.72,26.85-.07,2.9-.15,5.68-3.26,6.84-3.31,1.24-6.03,.05-8.02-2.84,0-10.73,0-21.46,0-32.19,.22-.27,.6-.52,.65-.82,3-17.76,19.33-31.46,38.86-32.61,4.73-.28,7.25,1.98,7.41,6.72,.09,2.61,.14,5.24-.01,7.85-.14,2.32,.37,3.55,3.03,4.01,4.15,.72,8.05,2.42,11.65,4.67,6.79,4.23,10.94,9.91,10.39,18.4-.29,4.38-.05,8.79-.05,13.49,2.85-2.1,5.12-4.05,7.66-5.54,1.86-1.1,2.46-2.34,2.45-4.44-.09-14.08-.05-28.16-.04-42.24,0-7.36,1.4-8.78,8.71-8.78,20.44-.01,40.87-.13,61.3,.11,3.93,.05,4.64-1.13,4.51-4.71-.28-7.97,.05-15.95-.15-23.92-.09-3.37,.43-6.26,3.06-8.53Zm-65.94,86.98c2.86-.96,5.23-.93,7.6-.9,4.3,.05,6.36,2.01,6.6,6.32,.05,1,0,2,.01,2.99,.02,2.62-.77,5.67,.31,7.73,1.1,2.09,4.58,1.68,6.96,2.52,12.76,4.45,17.83,11.29,17.83,24.2,.01,43.04,.06,86.08-.03,129.12,0,3.08,.68,3.92,3.84,3.91,29.44-.13,58.88-.13,88.32,0,3.27,.01,4.29-.63,4.28-4.15-.13-57.26-.09-114.52-.09-171.78,0-11.85-.07-23.7,.06-35.55,.03-2.36-.63-2.91-2.91-2.86-6.61,.16-13.23,.19-19.83,0-2.79-.08-3.73,.51-3.72,3.57,.14,24.57,.08,49.15,.08,73.73,0,11.23,.02,22.45-.02,33.68-.01,4.07-1.98,6.6-5.48,6.63-11.85,.11-23.7,.12-35.55-.01-3.31-.04-5.17-2.12-5.32-5.52-.05-1.12-.01-2.25-.01-3.37,0-35.05,0-70.11-.04-105.16,0-1.43,1.08-3.55-2.12-3.53-19.59,.1-39.17,.06-58.76,.03-1.29,0-2.07,.11-2.06,1.76,.06,12.08,.03,24.17,.03,36.65Zm278.52,29.64c0-21.57-.03-43.14,.05-64.7,0-2.38-.23-3.41-3.1-3.41-41.76,.11-83.53,.1-125.3,.02-2.48,0-3.05,.7-3.05,3.1,.07,43.14,.08,86.27-.02,129.41,0,2.87,.84,3.44,3.56,3.44,41.52-.09,83.03-.1,124.55,.02,2.97,0,3.37-.93,3.36-3.55-.1-21.44-.06-42.89-.06-64.33Zm-65.58,79.4c-20.83,0-41.67,.05-62.5-.06-2.55-.01-3.34,.54-3.32,3.23,.12,20.08,.14,40.17-.01,60.25-.02,2.91,.83,3.42,3.52,3.41,19.21-.12,38.42-.13,57.64,0,2.95,.02,5.14-.81,7.34-2.72,11.4-9.87,22.95-19.58,34.37-29.43,2.32-2,4.69-3.53,7.72-2.16,3.04,1.37,3.5,4.2,3.48,7.24-.06,8.11,.05,16.22-.07,24.33-.03,2.07,.47,2.82,2.65,2.73,3.86-.17,7.74-.24,11.6,.02,2.68,.17,3.25-.68,3.24-3.27-.12-20.08-.14-40.17,.02-60.25,.02-2.96-.89-3.38-3.54-3.37-20.71,.11-41.42,.06-62.13,.06Zm-234.39,127.63c6.43-5.43,13.06-8.69,20.5-9.93,2.9-.48,3.76-1.53,3.75-4.5-.13-37.65-.1-75.3-.12-112.95-.01-31.67-.06-63.33,.03-94.99,0-3.06-.63-3.5-3.55-2.58-12.4,3.93-20.57,14.89-20.6,28.4-.06,27.43,0,54.85,0,82.28,0,37.76,0,75.53,0,114.28Zm49.15,13.19c.07-.84,.13-1.21,.13-1.58,0-69.69-.02-139.37,.03-209.06,0-2.69-1.17-4.44-3.1-5.98-1.87-1.49-4.01-2.49-6.2-3.36-4.34-1.72-4.36-1.69-4.36,2.97,0,65.32,.01,130.65,.01,195.97,0,6.28-1.59,8.08-7.76,8.27-2.14,.07-3.02,.74-2.64,2.81,.31,1.73-1.37,4.33,2.48,4.44,7.37,.21,14.45,1.91,21.4,5.52Zm-60.57-42.97v-2.74c0-69.09-.02-138.18,.06-207.28,0-3.31-1.5-5.41-3.92-7.12-2.85-2.01-6.02-3.36-9.83-4.13v4.24c0,64.6,0,129.2,0,193.81,0,8.74-.26,9.08-8.65,10.68-3.27,.63-1.18,3.14-1.66,4.73-.43,1.43,.17,2.16,1.92,2.21,7.51,.2,14.7,1.9,22.07,5.6ZM250.16,141.71c0-22.81-.04-45.63,.06-68.44,.01-2.53-.48-3.57-3.22-3.35-3.22,.25-6.48-.04-9.72,.09-3.56,.14-8.32-1.6-10.34,.71-1.75,1.99-.28,6.65-.57,10.11-.23,2.76,.53,3.65,3.4,3.48,3.62-.22,5.89,1.85,6.28,4.98,.44,3.53-2.04,6.37-6.11,6.22-3.11-.12-3.93,1.02-3.53,3.79,.12,.86,.02,1.74,.02,2.62q0,8.1,8.22,8.33c.37,.01,.75,0,1.12,.04,3.43,.27,5.61,2.54,5.54,5.74-.08,3.2-2.34,5.44-5.77,5.57-2.24,.09-4.5,.17-6.73-.02-2.07-.17-2.51,.68-2.42,2.54,.14,2.74,.19,5.49,0,8.22-.2,2.69,.32,3.9,3.48,3.78,4.05-.16,6.58,2.69,6.28,6.2-.28,3.25-2.69,5.05-6.91,5.35-.95,.07-2.67-.8-2.73,.9-.16,4.34-.76,8.93,.44,12.93,.49,1.65,5.25,.33,8.06,.56,.37,.03,.75-.02,1.12,.01,3.05,.31,5.23,2.74,5.17,5.78-.05,3.1-2.15,5.3-5.38,5.47-2.11,.11-4.26,.25-6.35,.01-2.75-.31-3.39,.82-3.2,3.34,.21,2.85,.21,5.74,0,8.59-.18,2.39,.68,3.08,2.94,2.84,2.49-.27,4.72,.34,6.03,2.77,2.22,4.12-.63,8.58-5.7,8.5-2.56-.04-3.52,.54-3.27,3.23,.26,2.84,.17,5.73,.02,8.59-.1,1.94,.5,2.55,2.49,2.5,5.98-.13,11.97-.24,17.95,.03,2.98,.13,3.41-.95,3.4-3.58-.1-22.81-.06-45.63-.06-68.44Zm-105.4,244.81c-9.48,5.48-13,13.51-13.65,23.42-.53,8.09,2.9,13.78,9.87,17.25,10.83,5.39,21.66,4.74,32.02-1.36,4.77-2.81,7.94-6.97,6.99-12.94-.85-5.37-4.97-7.68-9.6-9.32-.58-.21-1.18-.37-1.77-.56-5.2-1.61-10.54-1.61-15.91-1.49-6.21,.15-7.92-1.57-7.95-7.88,0-2.12,0-4.24,0-7.13Zm-60.96-42.5c-6.64,3.07-10.68,8.49-12.73,16.75-3.21,12.96,2.07,22.41,14.57,25.72,6.23,1.65,12.58,1.56,18.79-.13,4.34-1.18,8.36-3.15,11.48-6.54,5.74-6.21,4.49-13.65-2.98-17.5-6.7-3.45-13.89-4.39-21.32-3.86-5.3,.38-7.63-1.61-7.81-6.95-.08-2.44-.01-4.89-.01-7.49Z"/>
  <path d="M346.12,414.95c-10.6,0-21.2-.05-31.8,.03-3.12,.02-5.73-.66-6.99-3.79-1.29-3.21,.32-5.43,2.68-7.43,21.93-18.64,43.85-37.3,65.75-55.98,2.04-1.74,4.18-2.75,6.79-1.46,2.49,1.23,3.41,3.31,3.4,6.09-.06,18.58-.01,37.16-.05,55.74,0,4.71-2.09,6.77-6.86,6.79-10.97,.04-21.95,.01-32.92,.01Zm-17.44-12.03c.78,.23,1.09,.4,1.41,.4,14.09,.02,28.19-.04,42.28,.08,2.29,.02,2.28-1.06,2.28-2.7-.04-10.23-.02-20.46-.02-30.68v-6.23c-15.62,13.3-30.64,26.09-45.95,39.13Z"/>
  <path d="M352.05,219.68c-8.23,0-16.46,.02-24.69,0-4.65-.01-6.71-1.9-6.72-6.45-.05-16.71,0-33.42-.05-50.13,0-2.28,.8-4.03,2.4-5.61,8.15-8.07,16.26-16.19,24.35-24.32,1.68-1.69,3.58-2.48,5.99-2.47,16.46,.05,32.92,0,49.38,.04,4.53,.01,6.89,2.34,6.9,6.93,.06,16.46,.01,32.92,.04,49.38,0,2.39-.89,4.28-2.58,5.95-8.14,8.08-16.26,16.19-24.34,24.33-1.69,1.7-3.57,2.42-5.99,2.39-8.23-.1-16.46-.04-24.69-.04Zm.12-51.65c-5.85,0-11.71,.09-17.56-.05-2.07-.05-2.72,.49-2.7,2.64,.11,11.71,.1,23.41,0,35.12-.02,2.07,.49,2.74,2.65,2.72,11.71-.11,23.41-.1,35.12,0,2.08,.02,2.73-.52,2.71-2.66-.1-11.71-.1-23.41,0-35.12,.02-2.1-.55-2.74-2.67-2.69-5.85,.14-11.71,.05-17.56,.05Zm-12.05-11.33c11.9,0,23.06,0,34.22-.02,.57,0,1.31-.17,1.69-.54,4.44-4.41,8.83-8.87,13.73-13.82-11.77,0-22.72,0-33.68,0-.87,0-1.71,0-2.41,.71-4.33,4.4-8.68,8.76-13.55,13.67Zm43.5,43.95c4.71-4.83,8.55-8.88,12.54-12.79,1.36-1.33,1.91-2.67,1.89-4.57-.08-9.83-.02-19.66-.07-29.49,0-.88,.53-1.97-.67-2.76-4.13,4.14-8.22,8.29-12.37,12.39-.83,.82-1.36,1.6-1.35,2.86,.05,11.05,.03,22.1,.03,34.36Z"/>
  <path d="M358.26,271.38c7.48,0,14.96-.02,22.44,0,4.34,.02,6.67,2.08,6.65,5.77-.02,3.62-2.09,5.61-6.38,5.63-15.33,.07-30.67,.07-46,0-4.2-.02-6.31-2.11-6.26-5.72,.05-3.62,2.26-5.65,6.36-5.67,7.73-.04,15.46-.01,23.19-.01Z"/>
  <path d="M343.44,305.03c-3.23,0-6.47,.07-9.7-.02-3.37-.1-4.83-2.2-5-5.32-.17-3.27,1.79-5.78,4.9-5.85,6.59-.15,13.18-.16,19.77,.01,3.06,.08,4.89,2.61,4.75,5.93-.14,3.2-1.74,5.12-5.02,5.23-3.23,.11-6.47,.02-9.7,.02Z"/>
</svg>