<?xml version="1.0" encoding="utf-8"?>
<!-- Generator: Adobe Illustrator 26.5.0, SVG Export Plug-In . SVG Version: 6.00 Build 0)  -->
<svg version="1.1" id="Capa_1" xmlns="http://www.w3.org/2000/svg" xmlns:xlink="http://www.w3.org/1999/xlink" x="0px" y="0px"
	 viewBox="0 0 281.4 445.2" style="enable-background:new 0 0 281.4 445.2;" xml:space="preserve">
<style type="text/css">
	.st0{fill:#FAFAFA;}
</style>
<path class="st0" d="M13.8,269.8l10.2-1.6l-3.5,66.1l-10.2,1.6L13.8,269.8L13.8,269.8z"/>
<path class="st0" d="M36,283.5l8.9-1.4l-0.5,9.8c1.8-3.6,4.4-6.5,7.7-8.9c3.3-2.4,7-3.9,10.9-4.5c2-0.3,3.7-0.3,5.1,0
	c1.4,0.3,2.6,0.9,3.6,1.8c1,0.9,1.7,1.9,2.3,3.2c0.6,1.3,1,2.7,1.2,4.3c0.2,1.3,0.3,2.6,0.3,4c0,1.4,0,2.9-0.1,4.4L74,325.8
	l-9.9,1.6l1.4-27.3c0.1-1.2,0.1-2.2,0.1-3.2c0-1-0.1-1.9-0.2-2.7c-0.7-4.6-3-6.6-6.9-6c-1.3,0.2-2.7,0.7-4,1.5s-2.7,1.8-3.9,3
	c-1.2,1.2-2.3,2.6-3.4,4.1c-1,1.5-1.8,3.2-2.3,4.9l-1.6,29l-9.9,1.6L36,283.5L36,283.5z"/>
<path class="st0" d="M103,341.9c-5,0.8-9.1,0.5-12.3-0.8s-5.9-3.4-8-6.4l5.8-6.3c1.6,2.3,3.7,4,6.3,4.9c2.6,1,5.4,1.2,8.5,0.7
	c1.9-0.3,3.8-0.9,5.5-1.7c1.8-0.8,3.3-1.9,4.7-3.3c1.4-1.4,2.5-3,3.3-5c0.8-1.9,1.3-4.1,1.4-6.6l0.3-7.4c-1.7,3.2-3.9,5.9-6.8,7.9
	c-2.9,2.1-5.8,3.3-8.9,3.8c-2.5,0.4-4.9,0.2-7-0.5c-2.2-0.7-4-1.8-5.7-3.4s-3-3.4-4.1-5.5c-1.1-2.2-1.8-4.5-2.2-7.1
	c-0.6-3.9-0.5-7.7,0.4-11.4c0.9-3.8,2.3-7.2,4.3-10.3c1.9-3,4.3-5.6,7.2-7.7c2.4-1.8,5.2-3.1,8.1-3.8c4.5-1.1,8.2-0.8,11.2,0.9
	c2.5,1.5,4.6,3.5,6.3,6.2l0.5-9.2l8.7-1.4l-2.5,47.3c-0.2,3.5-1,6.8-2.3,9.7c-1.4,2.9-3.2,5.5-5.4,7.7c-2.2,2.2-4.8,4.1-7.8,5.5
	C109.6,340.3,106.4,341.3,103,341.9L103,341.9z M106.5,312.9c1.4-0.2,2.7-0.7,4-1.4c1.3-0.7,2.5-1.6,3.6-2.7c1.1-1.1,2.1-2.2,3-3.5
	c0.8-1.3,1.5-2.6,1.9-4l0.8-12.8c-1-2.9-2.6-5.2-4.9-6.8c-2.3-1.6-4.7-2.2-7.3-1.8c-2.3,0.4-4.4,1.3-6.2,2.8
	c-1.9,1.5-3.4,3.3-4.7,5.4s-2.1,4.3-2.6,6.8c-0.5,2.5-0.6,4.8-0.2,7c0.3,1.7,0.8,3.3,1.5,4.8s1.7,2.7,2.8,3.7c1.1,1,2.4,1.7,3.8,2.2
	C103.4,313.1,104.9,313.2,106.5,312.9L106.5,312.9z"/>
<path class="st0" d="M142.3,266.7l9.2-1.5l-0.7,10.9c1.8-3.6,3.9-6.6,6.5-9.1c2.6-2.4,5.3-3.9,8.1-4.3c0.6-0.1,1.1-0.1,1.4-0.2
	c0.3,0,0.7,0,1,0l-0.5,9c-3.6,0.7-6.8,2.1-9.7,4.3c-2.9,2.1-5,4.9-6.4,8.3l-1.6,29.8l-9.9,1.6L142.3,266.7L142.3,266.7z"/>
<path class="st0" d="M175.3,261.5l9.9-1.6l-2.6,48.8l-9.9,1.6L175.3,261.5z M176.2,242.2l9.9-1.6l-0.5,11.3l-9.9,1.6L176.2,242.2z"
	/>
<path class="st0" d="M212.8,304.8c-2.6,0.4-5.1,0.3-7.3-0.4c-2.2-0.7-4.2-1.8-5.9-3.3c-1.7-1.5-3.1-3.4-4.3-5.6s-1.9-4.7-2.3-7.4
	c-0.6-3.9-0.5-7.6,0.4-11.4c0.9-3.8,2.3-7.2,4.2-10.3c2-3.1,4.4-5.7,7.3-7.8c2.9-2.1,6-3.4,9.4-4s6.4-0.1,9.1,1.4
	c2.6,1.5,4.6,3.5,6,6.2l1.5-28.5l10-1.6l-3,55.9c0,0.3,0,0.6,0,0.8c0,0.2,0,0.4,0.1,0.6c0.2,1.2,1,1.7,2.4,1.6l-0.5,8.8
	c-0.8,0.2-1.6,0.5-2.2,0.7c-0.7,0.2-1.3,0.3-1.7,0.4c-1.9,0.3-3.4,0.1-4.6-0.5c-1.2-0.6-1.9-1.7-2.1-3.1c-0.1-0.5-0.1-1.1-0.1-1.7
	c0-0.7,0-1.6,0.2-2.8c-1.8,3.4-4.2,6.2-7.2,8.4C219,303,216,304.3,212.8,304.8L212.8,304.8z M215.8,295.6c1.2-0.2,2.4-0.6,3.7-1.3
	c1.3-0.7,2.5-1.6,3.6-2.6c1.2-1,2.2-2.2,3.1-3.5s1.6-2.7,2-4.1l0.6-12.8c-0.4-1.4-1-2.7-1.9-3.8c-0.8-1.1-1.8-2.1-2.9-2.9
	s-2.3-1.3-3.5-1.7c-1.2-0.3-2.5-0.4-3.7-0.2c-2.3,0.4-4.3,1.3-6.2,2.7c-1.8,1.5-3.4,3.2-4.6,5.3c-1.2,2-2.1,4.3-2.7,6.8
	c-0.5,2.5-0.6,4.9-0.2,7.2c0.3,1.8,0.8,3.4,1.5,4.9c0.7,1.5,1.6,2.7,2.8,3.6c1.1,1,2.4,1.7,3.8,2.1
	C212.7,295.8,214.2,295.9,215.8,295.6L215.8,295.6z"/>
<path class="st0" d="M0,382.8l10.7-1.7l15.1,50.2l20.5-55.8l10.7-1.7l-27.6,70l-8.7,1.4L0,382.8z"/>
<path class="st0" d="M67.8,370.2L67.8,370.2c3.1-0.5,5.8,2,5.7,5.1l-3.2,62l-9.9,1.6l3.3-64.1C63.8,372.5,65.5,370.6,67.8,370.2z"/>
<path class="st0" d="M92.5,434.5c-2.8,0.4-5,0.1-6.7-1s-2.7-2.9-3.1-5.3c-0.1-0.5-0.1-1-0.1-1.5c0-0.5,0-1.1,0-1.6l3-57.7l9.8-1.6
	l-2.7,53.9c-0.1,0.7-0.1,1.3,0,1.9c0.2,1.2,0.7,2.1,1.5,2.6c0.8,0.5,1.8,0.7,3,0.5c0.7-0.1,1.4-0.4,2.3-0.7c0.9-0.4,1.7-0.8,2.5-1.2
	l0.9,7.8c-1.5,0.9-3.2,1.7-5.1,2.4S94.1,434.3,92.5,434.5L92.5,434.5z"/>
<path class="st0" d="M119,430.4c-2.8,0.4-5,0.1-6.7-1s-2.7-2.9-3.1-5.3c-0.1-0.5-0.1-1-0.2-1.5c0-0.5,0-1.1,0-1.6l3-57.7l9.8-1.6
	l-2.7,54c-0.1,0.7-0.1,1.3,0,1.9c0.2,1.2,0.7,2.1,1.5,2.6c0.8,0.5,1.8,0.7,3,0.5c0.7-0.1,1.4-0.4,2.3-0.7c0.9-0.4,1.7-0.8,2.5-1.2
	l0.9,7.8c-1.5,0.9-3.2,1.7-5.1,2.4S120.6,430.1,119,430.4L119,430.4z"/>
<path class="st0" d="M155.2,424.8c-3,0.5-5.8,0.4-8.2-0.3c-2.5-0.7-4.7-1.7-6.6-3.3c-1.9-1.5-3.5-3.4-4.7-5.7
	c-1.2-2.3-2.1-4.9-2.5-7.7c-0.6-3.9-0.4-7.6,0.5-11.4s2.5-7.1,4.7-10.2c2.2-3.1,5-5.7,8.3-7.8c3.3-2.2,7.1-3.6,11.2-4.2
	c4.9-0.8,8.9-0.3,12.2,1.4c3.3,1.7,5.2,4.7,5.9,9c1.6,9.9-6.5,16.2-24.1,19c-2.6,0.4-5.5,0.8-8.8,1.1l0.3,1.6
	c0.3,1.7,0.7,3.3,1.4,4.8c0.7,1.4,1.5,2.7,2.5,3.7s2.2,1.7,3.7,2.1c1.4,0.4,3,0.5,4.8,0.2c2.6-0.4,5-1.5,7.2-3.1
	c2.2-1.7,3.8-3.7,4.8-6.2l8.2,1.2c-0.9,2-2,3.8-3.4,5.6s-3,3.3-4.9,4.6c-1.8,1.4-3.8,2.5-5.9,3.5S157.5,424.4,155.2,424.8
	L155.2,424.8z M157.8,381.8c-2.2,0.3-4.1,1-5.8,2.1c-1.7,1-3.1,2.3-4.3,3.8c-1.2,1.5-2.1,3.1-2.8,4.9c-0.7,1.8-1.2,3.7-1.5,5.6
	c2.8-0.3,5.4-0.6,7.7-0.9c3.2-0.5,5.8-1.1,7.9-1.9c2.1-0.7,3.8-1.5,5-2.5c1.2-0.9,2.1-1.9,2.5-3c0.4-1.1,0.5-2.2,0.3-3.4
	c-0.3-2-1.3-3.4-2.9-4.2C162.4,381.5,160.3,381.4,157.8,381.8L157.8,381.8z"/>
<path class="st0" d="M186.2,370.6l8.9-1.4l-0.5,9.8c1.8-3.6,4.4-6.5,7.7-8.9c3.3-2.4,7-3.9,10.9-4.5c2-0.3,3.7-0.3,5.1,0
	s2.6,0.9,3.6,1.8c1,0.9,1.7,1.9,2.3,3.2c0.6,1.3,1,2.7,1.2,4.3c0.2,1.3,0.3,2.6,0.3,4c0,1.4,0,2.9-0.1,4.4l-1.5,29.7l-9.9,1.6
	l1.4-27.3c0.1-1.2,0.1-2.2,0.1-3.2c0-1-0.1-1.9-0.2-2.7c-0.7-4.6-3-6.6-6.9-6c-1.3,0.2-2.7,0.7-4,1.5s-2.6,1.8-3.9,3
	c-1.2,1.2-2.4,2.6-3.4,4.1c-1,1.5-1.8,3.2-2.3,4.9l-1.6,29l-9.9,1.6L186.2,370.6L186.2,370.6z"/>
<path class="st0" d="M254,409.2c-2.6,0.4-5.1,0.3-7.3-0.4s-4.2-1.8-5.9-3.3c-1.7-1.5-3.1-3.4-4.3-5.6s-1.9-4.7-2.3-7.4
	c-0.6-3.9-0.5-7.6,0.4-11.4c0.9-3.8,2.3-7.2,4.2-10.3c2-3.1,4.4-5.7,7.3-7.8c2.9-2.1,6-3.5,9.4-4c3.4-0.5,6.4-0.1,9,1.4
	c2.6,1.5,4.6,3.5,6,6.2l0.5-9.1l10-1.6l-2,36.5c0,0.3,0,0.6,0,0.8c0,0.2,0,0.4,0,0.6c0.2,1.2,1,1.7,2.4,1.6L281,404
	c-0.8,0.2-1.6,0.5-2.2,0.7c-0.7,0.2-1.3,0.3-1.7,0.4c-3.9,0.6-6.1-0.6-6.6-3.8c-0.1-1-0.2-2.4,0-4.4c-1.8,3.4-4.2,6.2-7.2,8.4
	S257.1,408.7,254,409.2L254,409.2z M257,400c1.2-0.2,2.4-0.6,3.7-1.3c1.3-0.7,2.5-1.6,3.6-2.6s2.2-2.2,3.1-3.5s1.6-2.7,2-4.1
	l0.6-12.8c-0.4-1.4-1-2.7-1.9-3.8c-0.8-1.1-1.8-2.1-2.9-2.9s-2.3-1.3-3.5-1.7c-1.2-0.3-2.5-0.4-3.7-0.2c-2.3,0.4-4.3,1.3-6.2,2.7
	c-1.8,1.5-3.4,3.2-4.6,5.3c-1.2,2-2.1,4.3-2.7,6.8c-0.5,2.5-0.6,4.9-0.2,7.2c0.3,1.8,0.8,3.4,1.5,4.9c0.7,1.5,1.6,2.7,2.8,3.6
	c1.1,1,2.4,1.7,3.8,2.1C253.8,400.2,255.3,400.3,257,400L257,400z"/>
<path class="st0" d="M265.5,324.4c-0.2-1.1-1.2-2-2.4-1.8L78.7,350.8c-0.6-1.7-1.7-3.3-3.1-4.5c-4.5-3.9-11.3-3.3-15.2,1.2
	c-1.6,1.8-2.5,4.1-2.6,6.5l-50.8,7.7c-1.2,0.2-1.9,1.3-1.8,2.4c0.2,1,1.1,1.8,2.1,1.8c0.1,0,0.2,0,0.3,0l50.8-7.7
	c0.6,1.7,1.7,3.3,3.1,4.5c2,1.7,4.4,2.6,7,2.6c0.3,0,0.6,0,0.8,0c2.9-0.2,5.5-1.5,7.3-3.7c1.6-1.8,2.5-4.1,2.6-6.5l184.4-28.1
	C264.9,326.7,265.7,325.6,265.5,324.4L265.5,324.4z M73.6,358.7c-1.1,1.3-2.7,2.1-4.4,2.3c-1.7,0.1-3.4-0.4-4.7-1.5
	c-1.3-1.1-2.1-2.7-2.3-4.5c-0.1-1.7,0.4-3.4,1.5-4.7c1.3-1.5,3.1-2.3,4.9-2.3c1.5,0,3,0.5,4.2,1.6c1.3,1.1,2.1,2.7,2.3,4.5
	C75.2,355.7,74.7,357.4,73.6,358.7L73.6,358.7z"/>
<g>
	<path class="st0" d="M220.5,183.4l-55.6-55.1l-0.3-6.8c-0.1-1.5-1.3-2.7-2.9-2.6c-1.5,0.1-2.7,1.3-2.6,2.8l0.3,6.9
		c0.1,1.3,0.6,2.5,1.5,3.4l55.7,55.2c0.5,0.5,1.2,0.8,1.9,0.8s1.4-0.3,1.9-0.8C221.6,186.2,221.6,184.4,220.5,183.4L220.5,183.4z"/>
	<path class="st0" d="M138.8,152.6c-0.8-0.7-2-0.9-3.7-1.4c-2-0.5-4.8-1.1-6.4-2.4c-1.4-1.1-9.2-9-14.2-14c-1.1-1.1-2.8-1.1-3.8,0
		s-1.1,2.8,0,3.9c0.3,0.3,1,1.1,2.1,2.1l-1.7,2.5c-0.1,0.1-0.5,0.1-0.6,0l-11.3-7.1c-0.3-0.2-0.3-0.5-0.2-0.8l2.5-4.2l0.4,0.4
		c1.6,1.5,3.6,2.3,5.7,2.3c0.1,0,0.2,0,0.4,0c2.3-0.1,4.3-1.1,5.8-2.8l0.3-0.4c1.7-2,2.3-4.5,1.9-6.8c1.9-0.3,3.6-1.2,4.8-2.7
		c0.5-0.6,1-1.3,1.3-2c1.3,1.4,3.1,2.2,5,2.2c0.1,1.8,0.5,4.2,1.4,6.4c1.7,4.1,8.5,10,9.3,10.7c0.5,0.4,1.1,0.7,1.8,0.7
		c0.8,0,1.5-0.3,2.1-0.9c1-1.1,0.9-2.9-0.3-3.8c-2.5-2.2-6.9-6.5-7.9-8.7c-0.8-1.9-1-4.1-1-5.5c2.8-1.1,5.2-3,7.4-5.7
		c2.6-3.3,4.2-9.7,4.4-10.5c0.4-1.5-0.5-2.9-2-3.3s-2.9,0.5-3.3,2c-0.4,1.6-1.8,6.3-3.4,8.4c-2.3,2.9-4.8,4.4-8.2,4.8
		c-0.5,0.1-0.9-0.1-1.3-0.4c-0.6-0.6-0.7-1.4-0.7-1.6c1.9-7.8,4-15.1,6-20c1-2.4,2.5-3.8,4.7-4.1c1.5-0.2,2.5-1.6,2.3-3.1
		c-0.2-1.3-1.3-2.3-2.6-2.3l18.8-29.7l5.7,3.7l-17.6,27.9c-0.2,0.4-0.4,0.8-0.4,1.2c-0.2,0.3-0.4,0.6-0.4,1
		c-0.3,1.5,0.6,2.9,2.1,3.2c9.6,2,13.5,9.1,13.7,10.9c0.1,0.5,0.2,2,0.5,6.3c0.1,1.4,1.3,2.5,2.7,2.5c0.1,0,0.1,0,0.2,0
		c1.5-0.1,2.6-1.4,2.5-2.9c-0.2-3.6-0.4-5.7-0.5-6.5c-0.4-3.8-5.1-11.4-14.6-14.7l16.4-26l10.5,6.7l0,0.1c-1.7,2.9-0.8,6.5,2.1,8.3
		l4,2.5c1,0.6,2.1,1,3.3,1c0.5,0,0.9-0.1,1.4-0.2c1.6-0.4,3-1.3,3.9-2.8l20.9-33.5c1.8-2.9,1.1-6.1-1.8-7.8l-4.4-2.7
		c-3-1.9-6.2-1.3-8,1.3l-0.7,1l-36-23l0.5-0.8l0-0.1c1.6-2.8,0.7-5.9-2.3-7.8L154,1c-1.8-1.1-3.4-1.1-4.4-0.9
		c-1,0.2-2.4,0.9-3.5,2.7l-20.9,33.4c-0.9,1.4-1.2,3.1-0.8,4.7c0.4,1.6,1.4,3,2.8,3.9l3.8,2.3c1,0.6,2.1,0.9,3.2,0.9
		c2,0,3.9-1,5.1-2.7l0.1-0.2l10.5,6.7l-20.5,32.4c-0.8-0.2-1.7-0.2-2.6,0.2l-1.4-1.3l-0.1-0.1c-1.7-1.5-3.8-2.2-6-2
		c-2.2,0.1-4.2,1.1-5.7,2.8c-1.7,1.9-2.3,4.4-2,6.7c-1.8,0.3-3.5,1.2-4.8,2.7c-1.7,1.9-2.3,4.3-2,6.6c-1.9,0.3-3.6,1.2-4.8,2.7
		c-1.8,2-2.4,4.6-1.9,7.1c-1.9,0.3-3.8,1.3-5.1,2.8c-2.9,3.3-2.7,8.3,0.5,11.4l3.6,3.5l-3.1,5.3c-1.7,2.8-0.8,6.4,2,8.2l11.3,7.1
		c0.9,0.6,2.1,0.9,3.1,0.9c1.9,0,3.7-0.8,4.8-2.3l1.2-1.8c3.5,3.5,7.5,7.4,8.7,8.4c2.6,2.1,6.2,2.9,8.6,3.5c0.5,0.1,1.2,0.3,1.6,0.4
		c3.5,3.4,40.8,40.8,55.4,55.3c0.5,0.5,1.2,0.8,1.9,0.8s1.4-0.3,1.9-0.8c1.1-1.1,1.1-2.8,0-3.9C181.9,195.5,139.8,153.4,138.8,152.6
		L138.8,152.6z M201.3,37.2c0.1,0,0.3,0.1,0.6,0.3l4.4,2.7c0.1,0,0.1,0.1,0.2,0.1c0,0.1-0.1,0.1-0.1,0.2L185.5,74
		c-0.1,0.2-0.3,0.3-0.5,0.3s-0.4,0-0.6-0.1l-4-2.5c-0.3-0.2-0.4-0.5-0.3-0.9l0.6-0.9l0.8-1.1c0.1-0.2,0.2-0.3,0.3-0.5l19.2-30.2
		l-0.1-0.1L201.3,37.2L201.3,37.2z M134.9,42.3c-0.2,0.3-0.7,0.4-1,0.2l-3.8-2.3c-0.2-0.1-0.3-0.3-0.3-0.5c0-0.1,0-0.3,0.1-0.6
		l20.9-33.4c0.1-0.1,0.1-0.2,0.2-0.2c0.1,0,0.1,0.1,0.2,0.1l4.4,2.7c0.3,0.2,0.4,0.3,0.5,0.4l-1.3,2.2c-0.1,0.2-0.2,0.3-0.2,0.5
		l-19.5,30.8L134.9,42.3L134.9,42.3L134.9,42.3z M142.4,40.5l14.9-23.6l36,23l-14.9,23.5l-21.5-13.7l-3.9-2.5l0,0L142.4,40.5z
		 M117.9,87.4c0.5-0.6,1.2-0.9,1.9-0.9c0.7,0,1.4,0.2,2,0.7l4.6,4.3c-0.1,0.1-0.1,0.2-0.2,0.4c-0.6,1.6-1.3,3.4-2,5.5l-6.2-6
		C117,90.3,116.9,88.6,117.9,87.4z M111.1,96.8c1-1.2,2.8-1.3,3.9-0.3l7.4,7c-0.6,1.9-1.1,3.9-1.6,6l-9.5-8.8
		C110.2,99.7,110.1,98,111.1,96.8L111.1,96.8z M104.3,106.1c0.5-0.6,1.2-0.9,1.9-0.9c0.1,0,0.1,0,0.2,0c0.7,0,1.3,0.2,1.8,0.7
		l8.1,7.6l0.1,0.1c0.6,0.5,0.9,1.2,0.9,1.9c0,0.8-0.2,1.5-0.7,2.1c-0.5,0.6-1.2,0.9-2,0.9c-0.8,0-1.5-0.2-2.1-0.8l-8.1-7.7
		C103.4,109,103.3,107.3,104.3,106.1L104.3,106.1z M97.3,116c0.6-0.7,1.6-1.1,2.6-1.1c0.6,0,1.3,0.2,1.7,0.6l7.9,7.7l0.1,0.1
		c1.2,1.1,1.3,2.7,0.3,3.8l-0.3,0.3c-0.5,0.6-1.2,0.9-2,0.9c-0.8,0-1.5-0.2-2.1-0.8l-8.1-7.7C96.4,118.8,96.3,117.1,97.3,116
		L97.3,116z"/>
</g>
<g>
	<g>
		<path class="st0" d="M126.9,11.2c-0.8,0-1.4-0.6-1.4-1.4V2.4c0-0.8,0.6-1.4,1.4-1.4s1.4,0.6,1.4,1.4v7.4
			C128.3,10.6,127.6,11.2,126.9,11.2z"/>
		<path class="st0" d="M126.9,50.3c-0.8,0-1.4-0.6-1.4-1.4V15.4c0-0.8,0.6-1.4,1.4-1.4s1.4,0.6,1.4,1.4v33.5
			C128.3,49.7,127.6,50.3,126.9,50.3z"/>
		<path class="st0" d="M126.9,73.7c-0.8,0-1.4-0.6-1.4-1.4v-14c0-0.8,0.6-1.4,1.4-1.4s1.4,0.6,1.4,1.4v14
			C128.3,73.1,127.6,73.7,126.9,73.7z"/>
		<path class="st0" d="M108.5,24.9c-0.6,0-1.2-0.5-1.3-1.1l-3.8-19c-0.2-0.7,0.3-1.5,1.1-1.6c0.7-0.2,1.4,0.3,1.6,1.1l3.8,19
			c0.2,0.7-0.3,1.5-1.1,1.6C108.7,24.9,108.6,24.9,108.5,24.9z"/>
		<path class="st0" d="M118.4,74.6c-0.6,0-1.2-0.4-1.3-1.1l-7.9-39.5c-0.2-0.7,0.3-1.5,1.1-1.6c0.7-0.2,1.4,0.3,1.6,1.1l7.9,39.5
			c0.2,0.7-0.3,1.4-1.1,1.6C118.6,74.5,118.5,74.6,118.4,74.6z"/>
		<path class="st0" d="M90.6,29.9c-0.5,0-1-0.3-1.3-0.8l-7.2-17.4c-0.3-0.7,0-1.5,0.7-1.8s1.5,0,1.8,0.7L91.8,28
			c0.3,0.7,0,1.5-0.7,1.8C90.9,29.8,90.7,29.9,90.6,29.9L90.6,29.9z"/>
		<path class="st0" d="M103.2,60.4c-0.5,0-1-0.3-1.3-0.8L91,33.1c-0.3-0.7,0-1.5,0.7-1.8s1.5,0,1.8,0.7l11,26.4
			c0.3,0.7,0,1.5-0.7,1.8C103.6,60.3,103.4,60.4,103.2,60.4L103.2,60.4z"/>
		<path class="st0" d="M110.2,77.1c-0.5,0-1-0.3-1.3-0.8l-4.6-11.1c-0.3-0.7,0-1.5,0.7-1.8c0.7-0.3,1.5,0,1.8,0.7l4.6,11.1
			c0.3,0.7,0,1.5-0.7,1.8C110.5,77,110.3,77,110.2,77.1L110.2,77.1z"/>
		<path class="st0" d="M76.8,42.5c-0.4,0-0.9-0.2-1.1-0.6L65.1,26.1c-0.4-0.6-0.2-1.5,0.4-1.9s1.5-0.2,1.9,0.4L78,40.4
			c0.4,0.6,0.2,1.5-0.4,1.9C77.3,42.5,77.1,42.5,76.8,42.5z"/>
		<path class="st0" d="M102.6,81.1c-0.4,0-0.9-0.2-1.1-0.6L79.1,47c-0.4-0.6-0.2-1.5,0.4-1.9s1.5-0.2,1.9,0.4L103.8,79
			c0.4,0.6,0.2,1.5-0.4,1.9C103.2,81,102.9,81.1,102.6,81.1z"/>
		<path class="st0" d="M51.5,41.8c-0.3,0-0.7-0.1-1-0.4l-4.8-4.9c-0.5-0.5-0.5-1.4,0-1.9s1.4-0.5,1.9,0l4.8,4.9
			c0.5,0.5,0.5,1.4,0,1.9C52.2,41.7,51.8,41.8,51.5,41.8z"/>
		<path class="st0" d="M79.5,69.9c-0.3,0-0.7-0.1-1-0.4l-21-21c-0.5-0.5-0.5-1.4,0-1.9s1.4-0.5,1.9,0l21,21c0.5,0.5,0.5,1.4,0,1.9
			C80.2,69.8,79.9,69.9,79.5,69.9z"/>
		<path class="st0" d="M96.1,86.5c-0.3,0-0.7-0.1-1-0.4L85,75.9c-0.5-0.5-0.5-1.4,0-1.9s1.4-0.5,1.9,0L97,84.2
			c0.5,0.5,0.5,1.4,0,1.9C96.8,86.3,96.4,86.5,96.1,86.5z"/>
		<path class="st0" d="M52.8,67.7c-0.3,0-0.5-0.1-0.8-0.2L31.7,53.9c-0.6-0.4-0.8-1.3-0.4-1.9c0.4-0.6,1.3-0.8,1.9-0.4l20.3,13.6
			c0.6,0.4,0.8,1.3,0.4,1.9C53.7,67.5,53.2,67.7,52.8,67.7L52.8,67.7z"/>
		<path class="st0" d="M90.7,93.1c-0.3,0-0.5-0.1-0.8-0.2L56.6,70.6c-0.6-0.4-0.8-1.3-0.4-1.9c0.4-0.6,1.3-0.8,1.9-0.4l33.3,22.2
			c0.6,0.4,0.8,1.3,0.4,1.9C91.6,92.9,91.1,93.1,90.7,93.1L90.7,93.1z"/>
		<path class="st0" d="M38.2,80.7c-0.2,0-0.3,0-0.5-0.1l-16.3-6.7c-0.7-0.3-1-1.1-0.7-1.8c0.3-0.7,1.1-1,1.8-0.7l16.3,6.7
			c0.7,0.3,1,1.1,0.7,1.8C39.3,80.3,38.8,80.7,38.2,80.7z"/>
		<path class="st0" d="M69,93.4c-0.2,0-0.3,0-0.5-0.1L42.6,82.6c-0.7-0.3-1-1.1-0.7-1.8c0.3-0.7,1.1-1,1.8-0.7l25.9,10.7
			c0.7,0.3,1,1.1,0.7,1.8C70,93.1,69.5,93.4,69,93.4z"/>
		<path class="st0" d="M86.6,100.7c-0.2,0-0.3,0-0.5-0.1l-11.2-4.6c-0.7-0.3-1-1.1-0.7-1.8c0.3-0.7,1.1-1,1.8-0.7L87.1,98
			c0.7,0.3,1,1.1,0.7,1.8C87.7,100.3,87.2,100.7,86.6,100.7z"/>
		<path class="st0" d="M40.4,100.2c-0.1,0-0.2,0-0.3,0l-21-4.2c-0.7-0.2-1.2-0.9-1.1-1.6s0.9-1.2,1.6-1.1l21,4.2
			c0.7,0.2,1.2,0.9,1.1,1.6C41.6,99.7,41,100.2,40.4,100.2z"/>
		<path class="st0" d="M84.1,108.8c-0.1,0-0.2,0-0.3,0l-39.1-7.7c-0.7-0.2-1.2-0.9-1.1-1.6s0.9-1.2,1.6-1.1l39.1,7.7
			c0.7,0.2,1.2,0.9,1.1,1.6C85.3,108.4,84.8,108.8,84.1,108.8z"/>
		<path class="st0" d="M20.8,117.3h-7.4c-0.8,0-1.4-0.6-1.4-1.4s0.6-1.4,1.4-1.4h7.4c0.8,0,1.4,0.6,1.4,1.4S21.5,117.3,20.8,117.3z"
			/>
		<path class="st0" d="M59.9,117.3H26.3c-0.8,0-1.4-0.6-1.4-1.4s0.6-1.4,1.4-1.4h33.5c0.8,0,1.4,0.6,1.4,1.4S60.6,117.3,59.9,117.3z
			"/>
		<path class="st0" d="M83.3,117.3H69.3c-0.8,0-1.4-0.6-1.4-1.4s0.6-1.4,1.4-1.4h14.1c0.8,0,1.4,0.6,1.4,1.4S84.1,117.3,83.3,117.3z
			"/>
		<path class="st0" d="M15.5,139.4c-0.6,0-1.2-0.4-1.3-1.1c-0.1-0.7,0.3-1.4,1.1-1.6l19-3.8c0.7-0.1,1.5,0.3,1.6,1.1
			c0.2,0.7-0.3,1.4-1.1,1.6l-19,3.8C15.7,139.4,15.6,139.4,15.5,139.4z"/>
		<path class="st0" d="M44.6,133.7c-0.6,0-1.2-0.4-1.3-1.1c-0.2-0.7,0.3-1.4,1.1-1.6l39.5-7.9c0.7-0.2,1.4,0.3,1.6,1.1
			s-0.3,1.4-1.1,1.6l-39.5,7.9C44.8,133.7,44.7,133.7,44.6,133.7L44.6,133.7z"/>
		<path class="st0" d="M22,160.9c-0.5,0-1-0.3-1.3-0.8c-0.3-0.7,0-1.5,0.7-1.8l17.4-7.2c0.7-0.3,1.5,0,1.8,0.7
			c0.3,0.7,0,1.5-0.7,1.8l-17.4,7.2C22.4,160.9,22.2,160.9,22,160.9L22,160.9z"/>
		<path class="st0" d="M43.6,151.9c-0.5,0-1-0.3-1.3-0.8c-0.3-0.7,0-1.5,0.7-1.8l26.4-11c0.7-0.3,1.5,0,1.8,0.7s0,1.5-0.7,1.8
			l-26.4,11C43.9,151.9,43.7,151.9,43.6,151.9L43.6,151.9z"/>
		<path class="st0" d="M75.6,138.6c-0.5,0-1-0.3-1.3-0.8c-0.3-0.7,0-1.5,0.7-1.8l11.1-4.6c0.7-0.3,1.5,0,1.8,0.7s0,1.5-0.7,1.8
			l-11.1,4.6C75.9,138.6,75.7,138.6,75.6,138.6L75.6,138.6z"/>
		<path class="st0" d="M36.3,178c-0.4,0-0.9-0.2-1.1-0.6c-0.4-0.6-0.2-1.5,0.4-1.9l15.8-10.6c0.6-0.4,1.5-0.2,1.9,0.4
			s0.2,1.5-0.4,1.9l-15.8,10.6C36.8,177.9,36.6,178,36.3,178L36.3,178z"/>
		<path class="st0" d="M57.2,164c-0.4,0-0.9-0.2-1.1-0.6c-0.4-0.6-0.2-1.5,0.4-1.9l33.5-22.4c0.6-0.4,1.5-0.2,1.9,0.4
			s0.2,1.5-0.4,1.9L58,163.7C57.8,163.9,57.5,164,57.2,164L57.2,164z"/>
		<path class="st0" d="M46.6,197.6c-0.3,0-0.7-0.1-1-0.4c-0.5-0.5-0.5-1.4,0-1.9l4.9-4.9c0.5-0.5,1.4-0.5,1.9,0s0.5,1.4,0,1.9
			l-4.9,4.9C47.3,197.4,46.9,197.6,46.6,197.6z"/>
		<path class="st0" d="M58.5,185.7c-0.3,0-0.7-0.1-1-0.4c-0.5-0.5-0.5-1.4,0-1.9l21-21c0.5-0.5,1.4-0.5,1.9,0s0.5,1.4,0,1.9l-21,21
			C59.1,185.6,58.8,185.7,58.5,185.7z"/>
		<path class="st0" d="M85.9,158.2c-0.3,0-0.7-0.1-1-0.4c-0.5-0.5-0.5-1.4,0-1.9l10.1-10.1c0.5-0.5,1.4-0.5,1.9,0s0.5,1.4,0,1.9
			l-10.1,10.1C86.6,158.1,86.3,158.2,85.9,158.2z"/>
		<path class="st0" d="M63.8,211.7c-0.3,0-0.5-0.1-0.8-0.2c-0.6-0.4-0.8-1.3-0.4-1.9l13.6-20.3c0.4-0.6,1.3-0.8,1.9-0.4
			c0.6,0.4,0.8,1.3,0.4,1.9l-13.6,20.3C64.7,211.5,64.2,211.7,63.8,211.7L63.8,211.7z"/>
		<path class="st0" d="M80.4,186.8c-0.3,0-0.5-0.1-0.8-0.2c-0.6-0.4-0.8-1.3-0.4-1.9l22.2-33.3c0.4-0.6,1.3-0.8,1.9-0.4
			c0.6,0.4,0.8,1.3,0.4,1.9l-22.2,33.3C81.3,186.6,80.9,186.8,80.4,186.8L80.4,186.8z"/>
		<path class="st0" d="M83.5,222.2c-0.2,0-0.3,0-0.5-0.1c-0.7-0.3-1-1.1-0.7-1.8l6.7-16.3c0.3-0.7,1.1-1,1.8-0.7
			c0.7,0.3,1,1.1,0.7,1.8l-6.7,16.3C84.6,221.9,84.1,222.2,83.5,222.2L83.5,222.2z"/>
		<path class="st0" d="M92.3,201.1c-0.2,0-0.3,0-0.5-0.1c-0.7-0.3-1-1.1-0.7-1.8l10.7-25.9c0.3-0.7,1.1-1,1.8-0.7
			c0.7,0.3,1,1.1,0.7,1.8l-10.7,25.9C93.3,200.7,92.8,201.1,92.3,201.1L92.3,201.1z"/>
		<path class="st0" d="M105.6,168.8c-0.2,0-0.3,0-0.5-0.1c-0.7-0.3-1-1.1-0.7-1.8l4.6-11.2c0.3-0.7,1.1-1,1.8-0.7
			c0.7,0.3,1,1.1,0.7,1.8l-4.6,11.2C106.7,168.5,106.2,168.8,105.6,168.8L105.6,168.8z"/>
		<path class="st0" d="M105.6,224.8c-0.1,0-0.2,0-0.3,0c-0.7-0.1-1.2-0.9-1.1-1.6l4.2-21c0.2-0.7,0.9-1.2,1.6-1.1s1.2,0.9,1.1,1.6
			l-4.2,21C106.8,224.3,106.2,224.8,105.6,224.8z"/>
		<path class="st0" d="M110.7,199.1c-0.1,0-0.2,0-0.3,0c-0.7-0.1-1.2-0.9-1.1-1.6l7.7-39.1c0.2-0.7,0.9-1.2,1.6-1.1
			c0.7,0.1,1.2,0.9,1.1,1.6L112,198C111.9,198.7,111.3,199.1,110.7,199.1z"/>
		<path class="st0" d="M126.9,230.9c-0.8,0-1.4-0.6-1.4-1.4v-7.4c0-0.8,0.6-1.4,1.4-1.4s1.4,0.6,1.4,1.4v7.4
			C128.3,230.2,127.6,230.9,126.9,230.9z"/>
		<path class="st0" d="M126.9,217.9c-0.8,0-1.4-0.6-1.4-1.4V183c0-0.8,0.6-1.4,1.4-1.4s1.4,0.6,1.4,1.4v33.5
			C128.3,217.2,127.6,217.9,126.9,217.9z"/>
		<path class="st0" d="M126.9,174.9c-0.8,0-1.4-0.6-1.4-1.4v-14.1c0-0.8,0.6-1.4,1.4-1.4s1.4,0.6,1.4,1.4v14.1
			C128.3,174.3,127.6,174.9,126.9,174.9z"/>
		<path class="st0" d="M149.1,228.7c-0.6,0-1.2-0.4-1.3-1.1l-3.8-19c-0.1-0.7,0.3-1.4,1.1-1.6c0.7-0.1,1.4,0.3,1.6,1.1l3.8,19
			c0.1,0.7-0.3,1.4-1.1,1.6C149.2,228.7,149.1,228.7,149.1,228.7z"/>
		<path class="st0" d="M143.3,199.6c-0.6,0-1.2-0.4-1.3-1.1l-7.9-39.5c-0.1-0.7,0.3-1.4,1.1-1.6c0.7-0.1,1.4,0.3,1.6,1.1l7.9,39.5
			c0.1,0.7-0.3,1.4-1.1,1.6C143.4,199.6,143.4,199.6,143.3,199.6z"/>
		<path class="st0" d="M170.5,222.2c-0.5,0-1-0.3-1.3-0.8l-7.2-17.4c-0.3-0.7,0-1.5,0.7-1.8s1.5,0,1.8,0.7l7.2,17.4
			c0.3,0.7,0,1.5-0.7,1.8C170.8,222.1,170.7,222.2,170.5,222.2L170.5,222.2z"/>
		<path class="st0" d="M161.5,200.6c-0.5,0-1-0.3-1.3-0.8l-11-26.4c-0.3-0.7,0-1.5,0.7-1.8s1.5,0,1.8,0.7l11,26.4
			c0.3,0.7,0,1.5-0.7,1.8C161.9,200.6,161.7,200.6,161.5,200.6L161.5,200.6z"/>
		<path class="st0" d="M221.3,180.4c-0.3,0-0.5-0.1-0.8-0.2l-20.3-13.6c-0.6-0.4-0.8-1.3-0.4-1.9c0.4-0.6,1.3-0.8,1.9-0.4l20.3,13.6
			c0.6,0.4,0.8,1.3,0.4,1.9C222.2,180.2,221.8,180.4,221.3,180.4L221.3,180.4z"/>
		<path class="st0" d="M231.9,160.7c-0.2,0-0.4,0-0.5-0.1l-16.3-6.7c-0.7-0.3-1-1.1-0.7-1.8c0.3-0.7,1.1-1,1.8-0.7l16.3,6.7
			c0.7,0.3,1,1.1,0.7,1.8C232.9,160.3,232.4,160.7,231.9,160.7L231.9,160.7z"/>
		<path class="st0" d="M210.6,151.9c-0.2,0-0.4,0-0.5-0.1l-25.9-10.7c-0.7-0.3-1-1.1-0.7-1.8c0.3-0.7,1.1-1,1.8-0.7l25.9,10.7
			c0.7,0.3,1,1.1,0.7,1.8C211.7,151.6,211.2,151.9,210.6,151.9z"/>
		<path class="st0" d="M178.4,138.6c-0.2,0-0.4,0-0.5-0.1l-11.2-4.6c-0.7-0.3-1-1.1-0.7-1.8c0.3-0.7,1.1-1,1.8-0.7l11.2,4.6
			c0.7,0.3,1,1.1,0.7,1.8C179.5,138.3,179,138.6,178.4,138.6L178.4,138.6z"/>
		<path class="st0" d="M234.4,138.6c-0.1,0-0.2,0-0.3,0l-21-4.2c-0.7-0.1-1.2-0.9-1.1-1.6s0.9-1.2,1.6-1.1l21,4.2
			c0.7,0.1,1.2,0.9,1.1,1.6C235.6,138.1,235,138.6,234.4,138.6z"/>
		<path class="st0" d="M208.7,133.5c-0.1,0-0.2,0-0.3,0l-39.1-7.7c-0.7-0.2-1.2-0.9-1.1-1.6s0.9-1.2,1.6-1.1l39.1,7.7
			c0.7,0.1,1.2,0.9,1.1,1.6C209.9,133.1,209.4,133.5,208.7,133.5L208.7,133.5z"/>
		<path class="st0" d="M240.5,117.3H233c-0.8,0-1.4-0.6-1.4-1.4s0.6-1.4,1.4-1.4h7.4c0.8,0,1.4,0.6,1.4,1.4S241.2,117.3,240.5,117.3
			z"/>
		<path class="st0" d="M227.5,117.3h-33.5c-0.8,0-1.4-0.6-1.4-1.4s0.6-1.4,1.4-1.4h33.5c0.8,0,1.4,0.6,1.4,1.4
			S228.2,117.3,227.5,117.3L227.5,117.3z"/>
		<path class="st0" d="M184.5,117.3h-14.1c-0.8,0-1.4-0.6-1.4-1.4s0.6-1.4,1.4-1.4h14.1c0.8,0,1.4,0.6,1.4,1.4
			S185.3,117.3,184.5,117.3z"/>
		<path class="st0" d="M219.3,98.9c-0.6,0-1.2-0.4-1.3-1.1c-0.1-0.7,0.3-1.4,1.1-1.6l19-3.8c0.7-0.2,1.4,0.3,1.6,1.1
			c0.1,0.7-0.3,1.4-1.1,1.6l-19,3.8C219.4,98.9,219.4,98.9,219.3,98.9z"/>
		<path class="st0" d="M169.6,108.8c-0.6,0-1.2-0.4-1.3-1.1c-0.1-0.7,0.3-1.4,1.1-1.6l39.5-7.9c0.7-0.2,1.4,0.3,1.6,1.1
			c0.1,0.7-0.3,1.4-1.1,1.6l-39.5,7.9C169.8,108.8,169.7,108.8,169.6,108.8z"/>
		<path class="st0" d="M214.3,81c-0.5,0-1-0.3-1.3-0.8c-0.3-0.7,0-1.5,0.7-1.8l17.4-7.2c0.7-0.3,1.5,0,1.8,0.7s0,1.5-0.7,1.8
			l-17.4,7.2C214.7,80.9,214.5,81,214.3,81L214.3,81z"/>
		<path class="st0" d="M183.8,93.6c-0.5,0-1-0.3-1.3-0.8c-0.3-0.7,0-1.5,0.7-1.8l26.4-11c0.7-0.3,1.5,0,1.8,0.7s0,1.5-0.7,1.8
			l-26.4,11C184.2,93.6,184,93.6,183.8,93.6L183.8,93.6z"/>
		<path class="st0" d="M167.1,100.6c-0.5,0-1-0.3-1.3-0.8c-0.3-0.7,0-1.5,0.7-1.8l11.1-4.6c0.7-0.3,1.5,0,1.8,0.7s0,1.5-0.7,1.8
			l-11.1,4.6C167.5,100.5,167.3,100.6,167.1,100.6L167.1,100.6z"/>
		<path class="st0" d="M201.7,67.2c-0.4,0-0.9-0.2-1.1-0.6c-0.4-0.6-0.2-1.5,0.4-1.9l15.8-10.6c0.6-0.4,1.5-0.2,1.9,0.4
			s0.2,1.5-0.4,1.9L202.4,67C202.2,67.2,201.9,67.2,201.7,67.2z"/>
		<path class="st0" d="M163.1,93c-0.4,0-0.9-0.2-1.1-0.6c-0.4-0.6-0.2-1.5,0.4-1.9l33.5-22.4c0.6-0.4,1.5-0.2,1.9,0.4
			s0.2,1.5-0.4,1.9l-33.5,22.4C163.6,93,163.4,93,163.1,93L163.1,93z"/>
		<path class="st0" d="M157.7,86.5c-0.4,0-0.7-0.1-1-0.4c-0.5-0.5-0.5-1.4,0-1.9L166.9,74c0.5-0.5,1.4-0.5,1.9,0s0.5,1.4,0,1.9
			l-10.1,10.1C158.4,86.4,158.1,86.5,157.7,86.5L157.7,86.5z"/>
		<path class="st0" d="M135.4,74.5c-0.1,0-0.2,0-0.3,0c-0.7-0.2-1.2-0.9-1.1-1.6l5.5-27.9c0.1-0.7,0.9-1.2,1.6-1.1
			c0.7,0.2,1.2,0.9,1.1,1.6l-5.5,27.9C136.6,74.1,136,74.5,135.4,74.5z"/>
	</g>
	<g>
		<path class="st0" d="M128.1,53.5c0-0.7-0.6-1.2-1.2-1.2s-1.2,0.5-1.2,1.2s0.6,1.2,1.2,1.2S128.1,54.2,128.1,53.5z"/>
		<circle class="st0" cx="64" cy="22.4" r="1.2"/>
		<path class="st0" d="M56.2,44c0-0.7-0.5-1.2-1.2-1.2s-1.2,0.5-1.2,1.2s0.5,1.2,1.2,1.2S56.2,44.7,56.2,44z"/>
		<path class="st0" d="M84,71.8c0-0.7-0.6-1.2-1.2-1.2s-1.2,0.6-1.2,1.2s0.6,1.2,1.2,1.2S84,72.4,84,71.8z"/>
		<path class="st0" d="M64.4,114.7c-0.7,0-1.2,0.6-1.2,1.2s0.5,1.2,1.2,1.2c0.7,0,1.2-0.6,1.2-1.2S65.1,114.7,64.4,114.7z"/>
		<circle class="st0" cx="33.8" cy="178.5" r="1.2"/>
		<path class="st0" d="M55,186.6c-0.7,0-1.2,0.6-1.2,1.2s0.5,1.2,1.2,1.2s1.2-0.6,1.2-1.2S55.7,186.6,55,186.6z"/>
		<path class="st0" d="M82.7,158.9c-0.7,0-1.2,0.6-1.2,1.2s0.6,1.2,1.2,1.2s1.2-0.6,1.2-1.2S83.4,158.9,82.7,158.9z"/>
		<path class="st0" d="M125.7,178.4c0,0.7,0.6,1.2,1.2,1.2s1.2-0.6,1.2-1.2s-0.6-1.2-1.2-1.2S125.7,177.7,125.7,178.4z"/>
		<circle class="st0" cx="189.4" cy="115.9" r="1.2"/>
		<path class="st0" d="M220.1,54.6c0.7,0,1.2-0.5,1.2-1.2s-0.6-1.2-1.2-1.2s-1.2,0.5-1.2,1.2S219.4,54.6,220.1,54.6z"/>
		<path class="st0" d="M171.1,73c0.7,0,1.2-0.6,1.2-1.2s-0.6-1.2-1.2-1.2s-1.2,0.6-1.2,1.2S170.4,73,171.1,73z"/>
	</g>
</g>
</svg>
